<mxfile host="app.diagrams.net" modified="2022-03-01T17:33:57.557Z" agent="5.0 (Macintosh; Intel Mac OS X 10_15_7) AppleWebKit/537.36 (KHTML, like Gecko) Chrome/98.0.4758.109 Safari/537.36" etag="23lQyCZlCjytcpUB6qT6" version="16.6.4" type="github">
  <diagram name="Page-1" id="c37626ed-c26b-45fb-9056-f9ebc6bb27b6">
    <mxGraphModel dx="2688" dy="2042" grid="1" gridSize="10" guides="1" tooltips="1" connect="1" arrows="1" fold="1" page="1" pageScale="1" pageWidth="1100" pageHeight="850" background="none" math="0" shadow="0">
      <root>
        <mxCell id="0" />
        <mxCell id="1" parent="0" />
        <mxCell id="1c7a67bf8fd3230f-83" value="&lt;font style=&quot;font-size: 30px&quot;&gt;OSPF Lab 1&lt;/font&gt;" style="whiteSpace=wrap;html=1;rounded=0;shadow=0;comic=0;strokeWidth=1;fontFamily=Verdana;fontSize=14;fillColor=#f5f5f5;strokeColor=none;verticalAlign=top;fontStyle=1" parent="1" vertex="1">
          <mxGeometry x="280" y="170" width="1490" height="920" as="geometry" />
        </mxCell>
        <mxCell id="1c7a67bf8fd3230f-49" style="edgeStyle=none;html=1;labelBackgroundColor=none;startFill=0;endArrow=none;endFill=0;strokeWidth=2;fontFamily=Verdana;fontSize=12;exitX=0;exitY=0.5;exitDx=0;exitDy=0;exitPerimeter=0;" parent="1" source="A-2s1INBwk0pkpLd2G4z-1" target="1c7a67bf8fd3230f-46" edge="1">
          <mxGeometry relative="1" as="geometry">
            <mxPoint x="1020" y="551.1203007518798" as="sourcePoint" />
          </mxGeometry>
        </mxCell>
        <mxCell id="1c7a67bf8fd3230f-50" style="edgeStyle=none;html=1;labelBackgroundColor=none;startFill=0;endArrow=none;endFill=0;strokeWidth=2;fontFamily=Verdana;fontSize=12;exitX=0;exitY=0.5;exitDx=0;exitDy=0;exitPerimeter=0;startArrow=none;" parent="1" source="1c7a67bf8fd3230f-48" target="1c7a67bf8fd3230f-47" edge="1">
          <mxGeometry relative="1" as="geometry">
            <mxPoint x="1084" y="553.3652173913042" as="sourcePoint" />
          </mxGeometry>
        </mxCell>
        <mxCell id="1c7a67bf8fd3230f-51" style="edgeStyle=none;html=1;labelBackgroundColor=none;startFill=0;endArrow=none;endFill=0;strokeWidth=2;fontFamily=Verdana;fontSize=12;exitX=0.88;exitY=0.9;exitDx=0;exitDy=0;exitPerimeter=0;" parent="1" source="1c7a67bf8fd3230f-46" target="1c7a67bf8fd3230f-48" edge="1">
          <mxGeometry relative="1" as="geometry">
            <mxPoint x="1407.391304347826" y="552" as="sourcePoint" />
          </mxGeometry>
        </mxCell>
        <mxCell id="1c7a67bf8fd3230f-13" value="LAN&lt;br&gt;192.168.2.0/24" style="ellipse;shape=cloud;whiteSpace=wrap;html=1;rounded=0;shadow=0;comic=0;strokeWidth=1;fontFamily=Verdana;fontSize=12;" parent="1" vertex="1">
          <mxGeometry x="1430" y="250" width="160" height="80" as="geometry" />
        </mxCell>
        <mxCell id="1c7a67bf8fd3230f-14" value="LAN 192.168.1.0/24" style="ellipse;shape=cloud;whiteSpace=wrap;html=1;rounded=0;shadow=0;comic=0;strokeWidth=1;fontFamily=Verdana;fontSize=12;" parent="1" vertex="1">
          <mxGeometry x="290" y="412.5" width="200" height="80" as="geometry" />
        </mxCell>
        <mxCell id="1c7a67bf8fd3230f-15" value="LAN &lt;br&gt;192.168.4.0/24" style="ellipse;shape=cloud;whiteSpace=wrap;html=1;rounded=0;shadow=0;comic=0;strokeWidth=1;fontFamily=Verdana;fontSize=12;" parent="1" vertex="1">
          <mxGeometry x="1430" y="580" width="160" height="80" as="geometry" />
        </mxCell>
        <mxCell id="1c7a67bf8fd3230f-55" style="edgeStyle=none;html=1;labelBackgroundColor=none;startFill=0;endArrow=none;endFill=0;strokeWidth=2;fontFamily=Verdana;fontSize=12;exitX=0.88;exitY=0.1;exitDx=0;exitDy=0;exitPerimeter=0;" parent="1" source="A-2s1INBwk0pkpLd2G4z-1" target="1c7a67bf8fd3230f-13" edge="1">
          <mxGeometry relative="1" as="geometry" />
        </mxCell>
        <mxCell id="1c7a67bf8fd3230f-54" style="edgeStyle=none;html=1;labelBackgroundColor=none;startFill=0;endArrow=none;endFill=0;strokeWidth=2;fontFamily=Verdana;fontSize=12;exitX=0;exitY=0.5;exitDx=0;exitDy=0;exitPerimeter=0;" parent="1" source="A-2s1INBwk0pkpLd2G4z-2" target="1c7a67bf8fd3230f-14" edge="1">
          <mxGeometry relative="1" as="geometry" />
        </mxCell>
        <mxCell id="1c7a67bf8fd3230f-52" style="edgeStyle=none;html=1;labelBackgroundColor=none;startFill=0;endArrow=none;endFill=0;strokeWidth=2;fontFamily=Verdana;fontSize=12;" parent="1" source="1c7a67bf8fd3230f-48" target="1c7a67bf8fd3230f-15" edge="1">
          <mxGeometry relative="1" as="geometry" />
        </mxCell>
        <mxCell id="A-2s1INBwk0pkpLd2G4z-2" value="" style="shape=mxgraph.cisco.switches.workgroup_switch;sketch=0;html=1;pointerEvents=1;dashed=0;fillColor=#036897;strokeColor=#ffffff;strokeWidth=2;verticalLabelPosition=bottom;verticalAlign=top;align=center;outlineConnect=0;" vertex="1" parent="1">
          <mxGeometry x="560" y="430" width="101" height="45" as="geometry" />
        </mxCell>
        <mxCell id="A-2s1INBwk0pkpLd2G4z-7" style="edgeStyle=none;html=1;labelBackgroundColor=none;startFill=0;endArrow=none;endFill=0;strokeWidth=2;fontFamily=Verdana;fontSize=12;exitX=0.87;exitY=0.74;exitDx=0;exitDy=0;exitPerimeter=0;entryX=0.12;entryY=0.1;entryDx=0;entryDy=0;entryPerimeter=0;" edge="1" parent="1" source="A-2s1INBwk0pkpLd2G4z-2" target="1c7a67bf8fd3230f-47">
          <mxGeometry relative="1" as="geometry">
            <mxPoint x="820.6399999999999" y="387.6999999999998" as="sourcePoint" />
            <mxPoint x="1274" y="562.4658786253963" as="targetPoint" />
          </mxGeometry>
        </mxCell>
        <mxCell id="A-2s1INBwk0pkpLd2G4z-8" value="&lt;b&gt;&lt;font style=&quot;font-size: 25px&quot;&gt;R1&lt;/font&gt;&lt;/b&gt;" style="text;html=1;strokeColor=none;fillColor=none;align=center;verticalAlign=middle;whiteSpace=wrap;rounded=0;" vertex="1" parent="1">
          <mxGeometry x="751" y="290" width="60" height="30" as="geometry" />
        </mxCell>
        <mxCell id="A-2s1INBwk0pkpLd2G4z-10" value="&lt;b&gt;&lt;font style=&quot;font-size: 25px&quot;&gt;R3&lt;/font&gt;&lt;/b&gt;" style="text;html=1;strokeColor=none;fillColor=none;align=center;verticalAlign=middle;whiteSpace=wrap;rounded=0;" vertex="1" parent="1">
          <mxGeometry x="751" y="500" width="60" height="30" as="geometry" />
        </mxCell>
        <mxCell id="A-2s1INBwk0pkpLd2G4z-13" value="&lt;b&gt;&lt;font style=&quot;font-size: 25px&quot;&gt;R2&lt;/font&gt;&lt;/b&gt;" style="text;html=1;strokeColor=none;fillColor=none;align=center;verticalAlign=middle;whiteSpace=wrap;rounded=0;" vertex="1" parent="1">
          <mxGeometry x="1273" y="290" width="60" height="30" as="geometry" />
        </mxCell>
        <mxCell id="A-2s1INBwk0pkpLd2G4z-14" value="&lt;b&gt;&lt;font style=&quot;font-size: 25px&quot;&gt;R4&lt;/font&gt;&lt;/b&gt;" style="text;html=1;strokeColor=none;fillColor=none;align=center;verticalAlign=middle;whiteSpace=wrap;rounded=0;" vertex="1" parent="1">
          <mxGeometry x="1273" y="500" width="60" height="30" as="geometry" />
        </mxCell>
        <mxCell id="A-2s1INBwk0pkpLd2G4z-15" value="&lt;b&gt;&lt;font style=&quot;font-size: 25px&quot;&gt;gi0/0&lt;/font&gt;&lt;/b&gt;" style="text;html=1;strokeColor=none;fillColor=none;align=center;verticalAlign=middle;whiteSpace=wrap;rounded=0;" vertex="1" parent="1">
          <mxGeometry x="1190" y="320" width="60" height="30" as="geometry" />
        </mxCell>
        <mxCell id="A-2s1INBwk0pkpLd2G4z-16" value="&lt;b&gt;&lt;font style=&quot;font-size: 25px&quot;&gt;gi0/0&lt;/font&gt;&lt;/b&gt;" style="text;html=1;strokeColor=none;fillColor=none;align=center;verticalAlign=middle;whiteSpace=wrap;rounded=0;" vertex="1" parent="1">
          <mxGeometry x="830" y="320" width="60" height="30" as="geometry" />
        </mxCell>
        <mxCell id="A-2s1INBwk0pkpLd2G4z-21" value="&lt;b&gt;&lt;font style=&quot;font-size: 25px&quot;&gt;gi0/1&lt;/font&gt;&lt;/b&gt;" style="text;html=1;strokeColor=none;fillColor=none;align=center;verticalAlign=middle;whiteSpace=wrap;rounded=0;" vertex="1" parent="1">
          <mxGeometry x="780" y="390" width="60" height="30" as="geometry" />
        </mxCell>
        <mxCell id="A-2s1INBwk0pkpLd2G4z-22" value="&lt;b&gt;&lt;font style=&quot;font-size: 25px&quot;&gt;gi0/1&lt;/font&gt;&lt;/b&gt;" style="text;html=1;strokeColor=none;fillColor=none;align=center;verticalAlign=middle;whiteSpace=wrap;rounded=0;" vertex="1" parent="1">
          <mxGeometry x="1130" y="520" width="60" height="30" as="geometry" />
        </mxCell>
        <mxCell id="A-2s1INBwk0pkpLd2G4z-23" value="&lt;b&gt;&lt;font style=&quot;font-size: 25px&quot;&gt;gi0/2&lt;/font&gt;&lt;/b&gt;" style="text;html=1;strokeColor=none;fillColor=none;align=center;verticalAlign=middle;whiteSpace=wrap;rounded=0;" vertex="1" parent="1">
          <mxGeometry x="1190" y="570" width="60" height="30" as="geometry" />
        </mxCell>
        <mxCell id="A-2s1INBwk0pkpLd2G4z-24" value="&lt;b&gt;&lt;font style=&quot;font-size: 25px&quot;&gt;gi0/3&lt;/font&gt;&lt;/b&gt;" style="text;html=1;strokeColor=none;fillColor=none;align=center;verticalAlign=middle;whiteSpace=wrap;rounded=0;" vertex="1" parent="1">
          <mxGeometry x="680" y="541" width="60" height="30" as="geometry" />
        </mxCell>
        <mxCell id="A-2s1INBwk0pkpLd2G4z-36" value="" style="rounded=0;whiteSpace=wrap;html=1;dashed=1;fontSize=25;fillColor=none;" vertex="1" parent="1">
          <mxGeometry x="290" y="310" width="490" height="305" as="geometry" />
        </mxCell>
        <mxCell id="A-2s1INBwk0pkpLd2G4z-26" value="&lt;b&gt;&lt;font style=&quot;font-size: 25px&quot;&gt;gi0/0&lt;/font&gt;&lt;/b&gt;" style="text;html=1;strokeColor=none;fillColor=none;align=center;verticalAlign=middle;whiteSpace=wrap;rounded=0;" vertex="1" parent="1">
          <mxGeometry x="830" y="570" width="60" height="30" as="geometry" />
        </mxCell>
        <mxCell id="A-2s1INBwk0pkpLd2G4z-27" value="&lt;b&gt;&lt;font style=&quot;font-size: 25px&quot;&gt;gi0/3&lt;/font&gt;&lt;/b&gt;" style="text;html=1;strokeColor=none;fillColor=none;align=center;verticalAlign=middle;whiteSpace=wrap;rounded=0;" vertex="1" parent="1">
          <mxGeometry x="670" y="341.5" width="60" height="30" as="geometry" />
        </mxCell>
        <mxCell id="A-2s1INBwk0pkpLd2G4z-28" value="&lt;b&gt;&lt;font style=&quot;font-size: 25px&quot;&gt;gi0/3&lt;/font&gt;&lt;/b&gt;" style="text;html=1;strokeColor=none;fillColor=none;align=center;verticalAlign=middle;whiteSpace=wrap;rounded=0;" vertex="1" parent="1">
          <mxGeometry x="1350" y="330" width="60" height="30" as="geometry" />
        </mxCell>
        <mxCell id="A-2s1INBwk0pkpLd2G4z-29" value="&lt;b&gt;&lt;font style=&quot;font-size: 25px&quot;&gt;gi0/3&lt;/font&gt;&lt;/b&gt;" style="text;html=1;strokeColor=none;fillColor=none;align=center;verticalAlign=middle;whiteSpace=wrap;rounded=0;" vertex="1" parent="1">
          <mxGeometry x="1350" y="541" width="60" height="30" as="geometry" />
        </mxCell>
        <mxCell id="A-2s1INBwk0pkpLd2G4z-31" value="" style="edgeStyle=none;html=1;labelBackgroundColor=none;startFill=0;endArrow=none;endFill=0;strokeWidth=2;fontFamily=Verdana;fontSize=12;exitX=1;exitY=0;exitDx=0;exitDy=0;exitPerimeter=0;entryX=0;entryY=0.5;entryDx=0;entryDy=0;entryPerimeter=0;" edge="1" parent="1" source="A-2s1INBwk0pkpLd2G4z-2" target="1c7a67bf8fd3230f-46">
          <mxGeometry relative="1" as="geometry">
            <mxPoint x="661" y="430" as="sourcePoint" />
            <mxPoint x="742" y="356.5" as="targetPoint" />
          </mxGeometry>
        </mxCell>
        <mxCell id="A-2s1INBwk0pkpLd2G4z-37" value="" style="rounded=0;whiteSpace=wrap;html=1;dashed=1;fontSize=25;fillColor=none;" vertex="1" parent="1">
          <mxGeometry x="790" y="560" width="810" height="110" as="geometry" />
        </mxCell>
        <mxCell id="A-2s1INBwk0pkpLd2G4z-40" style="edgeStyle=none;rounded=0;orthogonalLoop=1;jettySize=auto;html=1;exitX=0.5;exitY=1;exitDx=0;exitDy=0;exitPerimeter=0;entryX=0;entryY=0.5;entryDx=0;entryDy=0;entryPerimeter=0;fontSize=25;endArrow=none;endFill=0;dashed=1;" edge="1" parent="1" source="1c7a67bf8fd3230f-46" target="1c7a67bf8fd3230f-48">
          <mxGeometry relative="1" as="geometry" />
        </mxCell>
        <mxCell id="A-2s1INBwk0pkpLd2G4z-41" style="edgeStyle=none;rounded=0;orthogonalLoop=1;jettySize=auto;html=1;exitX=1;exitY=0.5;exitDx=0;exitDy=0;exitPerimeter=0;entryX=0.5;entryY=0;entryDx=0;entryDy=0;entryPerimeter=0;dashed=1;fontSize=25;endArrow=none;endFill=0;startArrow=none;" edge="1" parent="1" source="A-2s1INBwk0pkpLd2G4z-58" target="1c7a67bf8fd3230f-48">
          <mxGeometry relative="1" as="geometry" />
        </mxCell>
        <mxCell id="1c7a67bf8fd3230f-46" value="" style="shape=mxgraph.cisco.routers.router;html=1;dashed=0;fillColor=#036897;strokeColor=#ffffff;strokeWidth=2;verticalLabelPosition=bottom;verticalAlign=top;rounded=0;shadow=0;comic=0;fontFamily=Verdana;fontSize=12;" parent="1" vertex="1">
          <mxGeometry x="742" y="330" width="78" height="53" as="geometry" />
        </mxCell>
        <mxCell id="1c7a67bf8fd3230f-47" value="" style="shape=mxgraph.cisco.routers.router;html=1;dashed=0;fillColor=#036897;strokeColor=#ffffff;strokeWidth=2;verticalLabelPosition=bottom;verticalAlign=top;rounded=0;shadow=0;comic=0;fontFamily=Verdana;fontSize=12;" parent="1" vertex="1">
          <mxGeometry x="742" y="541" width="78" height="53" as="geometry" />
        </mxCell>
        <mxCell id="1c7a67bf8fd3230f-48" value="" style="shape=mxgraph.cisco.routers.router;html=1;dashed=0;fillColor=#036897;strokeColor=#ffffff;strokeWidth=2;verticalLabelPosition=bottom;verticalAlign=top;rounded=0;shadow=0;comic=0;fontFamily=Verdana;fontSize=12;" parent="1" vertex="1">
          <mxGeometry x="1264" y="541" width="78" height="53" as="geometry" />
        </mxCell>
        <mxCell id="A-2s1INBwk0pkpLd2G4z-38" value="" style="rounded=0;whiteSpace=wrap;html=1;dashed=1;fontSize=25;fillColor=none;" vertex="1" parent="1">
          <mxGeometry x="810" y="250" width="490" height="120" as="geometry" />
        </mxCell>
        <mxCell id="A-2s1INBwk0pkpLd2G4z-1" value="" style="shape=mxgraph.cisco.routers.router;html=1;dashed=0;fillColor=#036897;strokeColor=#ffffff;strokeWidth=2;verticalLabelPosition=bottom;verticalAlign=top;rounded=0;shadow=0;comic=0;fontFamily=Verdana;fontSize=12;" vertex="1" parent="1">
          <mxGeometry x="1264" y="330" width="78" height="53" as="geometry" />
        </mxCell>
        <mxCell id="A-2s1INBwk0pkpLd2G4z-42" value="&lt;b&gt;&lt;font style=&quot;font-size: 25px&quot;&gt;Area 2&lt;br&gt;10.0.0.0/30&lt;br&gt;&lt;/font&gt;&lt;/b&gt;" style="text;html=1;strokeColor=none;fillColor=none;align=center;verticalAlign=middle;whiteSpace=wrap;rounded=0;" vertex="1" parent="1">
          <mxGeometry x="1007.5" y="270" width="95" height="30" as="geometry" />
        </mxCell>
        <mxCell id="A-2s1INBwk0pkpLd2G4z-43" value="&lt;b&gt;&lt;font style=&quot;font-size: 25px&quot;&gt;Area 0&lt;br&gt;10.0.10/29&lt;br&gt;&lt;/font&gt;&lt;/b&gt;" style="text;html=1;strokeColor=none;fillColor=none;align=center;verticalAlign=middle;whiteSpace=wrap;rounded=0;" vertex="1" parent="1">
          <mxGeometry x="487.5" y="340" width="95" height="30" as="geometry" />
        </mxCell>
        <mxCell id="A-2s1INBwk0pkpLd2G4z-44" value="&lt;b&gt;&lt;font style=&quot;font-size: 25px&quot;&gt;Area 1&lt;br&gt;10.0.0.8/30&lt;br&gt;&lt;/font&gt;&lt;/b&gt;" style="text;html=1;strokeColor=none;fillColor=none;align=center;verticalAlign=middle;whiteSpace=wrap;rounded=0;" vertex="1" parent="1">
          <mxGeometry x="1007.5" y="615" width="95" height="30" as="geometry" />
        </mxCell>
        <mxCell id="A-2s1INBwk0pkpLd2G4z-45" value="&lt;b&gt;&lt;font style=&quot;font-size: 25px&quot;&gt;Area 1&lt;br&gt;10.0.0.4/30&lt;br&gt;&lt;/font&gt;&lt;/b&gt;" style="text;html=1;strokeColor=none;fillColor=none;align=center;verticalAlign=middle;whiteSpace=wrap;rounded=0;rotation=15;" vertex="1" parent="1">
          <mxGeometry x="1077.5" y="420" width="95" height="30" as="geometry" />
        </mxCell>
        <mxCell id="A-2s1INBwk0pkpLd2G4z-47" value="&lt;b&gt;&lt;font style=&quot;font-size: 25px&quot;&gt;.1&lt;br&gt;&lt;/font&gt;&lt;/b&gt;" style="text;html=1;strokeColor=none;fillColor=none;align=center;verticalAlign=middle;whiteSpace=wrap;rounded=0;" vertex="1" parent="1">
          <mxGeometry x="812.5" y="290" width="95" height="30" as="geometry" />
        </mxCell>
        <mxCell id="A-2s1INBwk0pkpLd2G4z-50" value="&lt;b&gt;&lt;font style=&quot;font-size: 25px&quot;&gt;.2&lt;br&gt;&lt;/font&gt;&lt;/b&gt;" style="text;html=1;strokeColor=none;fillColor=none;align=center;verticalAlign=middle;whiteSpace=wrap;rounded=0;" vertex="1" parent="1">
          <mxGeometry x="1165" y="290" width="95" height="30" as="geometry" />
        </mxCell>
        <mxCell id="A-2s1INBwk0pkpLd2G4z-51" value="&lt;b&gt;&lt;font style=&quot;font-size: 25px&quot;&gt;.9&lt;br&gt;&lt;/font&gt;&lt;/b&gt;" style="text;html=1;strokeColor=none;fillColor=none;align=center;verticalAlign=middle;whiteSpace=wrap;rounded=0;" vertex="1" parent="1">
          <mxGeometry x="810" y="600" width="95" height="30" as="geometry" />
        </mxCell>
        <mxCell id="A-2s1INBwk0pkpLd2G4z-52" value="&lt;b&gt;&lt;font style=&quot;font-size: 25px&quot;&gt;.10&lt;br&gt;&lt;/font&gt;&lt;/b&gt;" style="text;html=1;strokeColor=none;fillColor=none;align=center;verticalAlign=middle;whiteSpace=wrap;rounded=0;" vertex="1" parent="1">
          <mxGeometry x="1172.5" y="594" width="95" height="30" as="geometry" />
        </mxCell>
        <mxCell id="A-2s1INBwk0pkpLd2G4z-54" value="&lt;b&gt;&lt;font style=&quot;font-size: 25px&quot;&gt;.1&lt;br&gt;&lt;/font&gt;&lt;/b&gt;" style="text;html=1;strokeColor=none;fillColor=none;align=center;verticalAlign=middle;whiteSpace=wrap;rounded=0;" vertex="1" parent="1">
          <mxGeometry x="1332.5" y="360" width="95" height="30" as="geometry" />
        </mxCell>
        <mxCell id="A-2s1INBwk0pkpLd2G4z-55" value="&lt;b&gt;&lt;font style=&quot;font-size: 25px&quot;&gt;.1&lt;br&gt;&lt;/font&gt;&lt;/b&gt;" style="text;html=1;strokeColor=none;fillColor=none;align=center;verticalAlign=middle;whiteSpace=wrap;rounded=0;" vertex="1" parent="1">
          <mxGeometry x="1332.5" y="511" width="95" height="30" as="geometry" />
        </mxCell>
        <mxCell id="A-2s1INBwk0pkpLd2G4z-56" value="&lt;b&gt;&lt;font style=&quot;font-size: 25px&quot;&gt;.1&lt;br&gt;&lt;/font&gt;&lt;/b&gt;" style="text;html=1;strokeColor=none;fillColor=none;align=center;verticalAlign=middle;whiteSpace=wrap;rounded=0;" vertex="1" parent="1">
          <mxGeometry x="656" y="310" width="95" height="30" as="geometry" />
        </mxCell>
        <mxCell id="A-2s1INBwk0pkpLd2G4z-57" value="&lt;b&gt;&lt;font style=&quot;font-size: 25px&quot;&gt;.1&lt;br&gt;&lt;/font&gt;&lt;/b&gt;" style="text;html=1;strokeColor=none;fillColor=none;align=center;verticalAlign=middle;whiteSpace=wrap;rounded=0;" vertex="1" parent="1">
          <mxGeometry x="652.5" y="571" width="95" height="30" as="geometry" />
        </mxCell>
        <mxCell id="A-2s1INBwk0pkpLd2G4z-59" value="&lt;b&gt;&lt;font style=&quot;font-size: 25px&quot;&gt;.6&lt;br&gt;&lt;/font&gt;&lt;/b&gt;" style="text;html=1;strokeColor=none;fillColor=none;align=center;verticalAlign=middle;whiteSpace=wrap;rounded=0;" vertex="1" parent="1">
          <mxGeometry x="1205" y="511" width="95" height="30" as="geometry" />
        </mxCell>
        <mxCell id="A-2s1INBwk0pkpLd2G4z-58" value="&lt;b&gt;&lt;font style=&quot;font-size: 25px&quot;&gt;.5&lt;br&gt;&lt;/font&gt;&lt;/b&gt;" style="text;html=1;strokeColor=none;fillColor=none;align=center;verticalAlign=middle;whiteSpace=wrap;rounded=0;" vertex="1" parent="1">
          <mxGeometry x="837" y="370" width="70" height="30" as="geometry" />
        </mxCell>
        <mxCell id="A-2s1INBwk0pkpLd2G4z-62" value="" style="edgeStyle=none;rounded=0;orthogonalLoop=1;jettySize=auto;html=1;exitX=1;exitY=0.5;exitDx=0;exitDy=0;exitPerimeter=0;entryX=0.5;entryY=0;entryDx=0;entryDy=0;entryPerimeter=0;dashed=1;fontSize=25;endArrow=none;endFill=0;" edge="1" parent="1" source="1c7a67bf8fd3230f-46" target="A-2s1INBwk0pkpLd2G4z-58">
          <mxGeometry relative="1" as="geometry">
            <mxPoint x="820" y="356.5" as="sourcePoint" />
            <mxPoint x="1303" y="541" as="targetPoint" />
          </mxGeometry>
        </mxCell>
        <mxCell id="A-2s1INBwk0pkpLd2G4z-64" value="&lt;div&gt;1. Set up hostnames, interfaces, IP&#39;s, etc...&lt;/div&gt;&lt;div&gt;2. Set up OSPF area 0 between R1-R3 (can add future routers). No DR/BDR&lt;/div&gt;&lt;div&gt;3. Setup OSPF area 1 between R1-R3-R4. Setup auth w/key JBC&lt;/div&gt;&lt;div&gt;4. Setup OSPF area 2 between R1-R2. No inter-area routes into area, only default (w/ metric of 500), and ability to inject external routes....means NSSA&lt;/div&gt;&lt;div&gt;5. R2 injects 192.168.2.0/24 into Area 2 as an External N1 router w/ route tag of 1111&lt;/div&gt;&lt;div&gt;6. Add secondary subnet (192.168.1.0/29, .1 on R1 and .3 on R3 ) on LAN segment between R1-R3. Don&#39;t advertise into Area 1, but R2 should reach it.&lt;/div&gt;" style="text;html=1;strokeColor=none;fillColor=none;align=left;verticalAlign=middle;whiteSpace=wrap;rounded=0;dashed=1;fontSize=30;" vertex="1" parent="1">
          <mxGeometry x="310" y="850" width="1370" height="30" as="geometry" />
        </mxCell>
        <mxCell id="A-2s1INBwk0pkpLd2G4z-66" value="" style="shape=image;verticalLabelPosition=bottom;verticalAlign=top;imageAspect=0;aspect=fixed;image=data:image/png,iVBORw0KGgoAAAANSUhEUgAABQoAAABkCAYAAADOmw3VAAAK2mlDQ1BJQ0MgUHJvZmlsZQAASImVlwdQU+kWgP9700NCC0RASui9twBSQmihSwdRCUkgocSQEERERWVxBdeCigioK7oqouDqCogNsWBbFHvfIIuCuooFG2r2Bh5hd9+89+admZP/m5Pzn/Lf+8+cCwA5jC0S5cHqAOQLC8VxoYG0lNQ0Gu4JgIEOogbAi82RiBixsZEAkcn17/L+FoAU63V7Rax///+/iiaXJ+EAAKUjnMmVcPIR7kL0GUckLgQAtQ+xm84vFCn4KsJaYqRAhH9XcPYEf1Rw5jijSeM+CXFMhGkA4ElstjgbAJIdYqcVcbKROCRFD05CrkCIcCnCfhw+m4vwMYTt8vPnKXgIYSvEXwQAGTkdQM/8S8zsv8XPVMZns7OVPNHXuOCDBBJRHnvB/3k0/1vy86STOSwQJfHFYXGKfMj53cmdF6FkYWZ0zCQLuBM1KZgvDUucZI6EmTbJXHZQhHJvXnTkJGcJQljKOIWshEnmSYLjJ1k8L06ZK0vMZEwyWzyel4iwTJqbqLTzeSxl/BJ+QvIkFwmSoidZkhsfMeXDVNrF0jhl/TxhaOBU3hBl7/mSv/QrYCn3FvITwpS9s6fq5wkZUzElKcrauLyg4CmfRKW/qDBQmUuUF6v05+WFKu2Sonjl3kLk5ZzaG6s8wxx2eOwkAwGIAmzAoalNEgCFvOJCRSPMeaIFYkE2v5DGQG4bj8YSchzsaC5OLi4AKO7uxOvwljp+JyHqxSnb8hUA+DbJ5fKjU7aIQQAOvUIey8Mpm2UOAKp8AM5v5EjFRRM2tOIHgzw9NaAFdIEhMAVWwB64AA/gAwJAMAgHMSABpII5SK18kA/EYD4oBUtBBagCa8FGUAe2gR1gD9gPDoJ2cAycAufAJXAV3AT3gQwMgudgBLwHYxAE4SAyRIF0ISPIHLKFXCA65AcFQ5FQHJQKZUDZkBCSQqXQcqgKqobqoO1QE/QzdAQ6BV2A+qC7UD80DL2BPsMomARrwQawBewI02EGHAEnwLPhbLgALoHL4dVwLdwI74Pb4FPwJfgmLIOfw6MogFJBUVHGKHsUHcVExaDSUFkoMWoxqhJVg2pEtaA6UT2o6ygZ6gXqExqLpqBpaHu0DzoMnYjmoAvQi9Gr0HXoPeg29Bn0dXQ/egT9DUPG6GNsMd4YFiYFk42Zj6nA1GB2YQ5jzmJuYgYx77FYLBVrifXEhmFTsTnYhdhV2C3YVmwXtg87gB3F4XC6OFucLy4Gx8YV4ipwm3H7cCdx13CDuI94FbwR3gUfgk/DC/HL8DX4vfgT+Gv4p/gxgjrBnOBNiCFwCQsIawg7CZ2EK4RBwhhRg2hJ9CUmEHOIS4m1xBbiWeID4lsVFRUTFS+VmSoClTKVWpUDKudV+lU+kTRJNiQmKZ0kJa0m7SZ1ke6S3pLJZAtyADmNXEheTW4inyY/In9Upag6qLJUuapLVOtV21Svqb5UI6iZqzHU5qiVqNWoHVK7ovZCnaBuoc5UZ6svVq9XP6J+W31Ug6LhrBGjka+xSmOvxgWNIU2cpoVmsCZXs1xzh+ZpzQEKimJKYVI4lOWUnZSzlEEtrJalFksrR6tKa79Wr9aItqa2m3aSdrF2vfZxbRkVRbWgsqh51DXUg9Rb1M/TDKYxpvGmrZzWMu3atA8603UCdHg6lTqtOjd1PuvSdIN1c3XX6bbrPtRD69nozdSbr7dV76zei+la032mc6ZXTj84/Z4+rG+jH6e/UH+H/mX9UQNDg1ADkcFmg9MGLwyphgGGOYYbDE8YDhtRjPyMBEYbjE4aPaNp0xi0PFot7QxtxFjfOMxYarzduNd4zMTSJNFkmUmryUNToindNMt0g2m36YiZkVmUWalZs9k9c4I53Zxvvsm8x/yDhaVFssUKi3aLIUsdS5ZliWWz5QMrspW/VYFVo9UNa6w13TrXeov1VRvYxt2Gb1Nvc8UWtvWwFdhuse2zw9h52QntGu1u25PsGfZF9s32/Q5Uh0iHZQ7tDi8dzRzTHNc59jh+c3J3ynPa6XTfWdM53HmZc6fzGxcbF45LvcsNV7JriOsS1w7X1262bjy3rW533CnuUe4r3Lvdv3p4eog9WjyGPc08MzwbPG/Tteix9FX0814Yr0CvJV7HvD55e3gXeh/0fuVj75Prs9dnaIblDN6MnTMGfE182b7bfWV+NL8Mvx/9ZP7G/mz/Rv/HAaYB3IBdAU8Z1owcxj7Gy0CnQHHg4cAPTG/mImZXECooNKgyqDdYMzgxuC74UYhJSHZIc8hIqHvowtCuMExYRNi6sNssAxaH1cQaCfcMXxR+JoIUER9RF/E40iZSHNkZBUeFR62PehBtHi2Mbo8BMayY9TEPYy1jC2KPzsTOjJ1ZP/NJnHNcaVxPPCV+bvze+PcJgQlrEu4nWiVKE7uT1JLSk5qSPiQHJVcny1IcUxalXErVSxWkdqTh0pLSdqWNzgqetXHWYLp7ekX6rdmWs4tnX5ijNydvzvG5anPZcw9lYDKSM/ZmfGHHsBvZo5mszIbMEQ6Ts4nznBvA3cAd5vnyqnlPs3yzqrOGsn2z12cP8/35NfwXAqagTvA6JyxnW86H3Jjc3bnyvOS81nx8fkb+EaGmMFd4Zp7hvOJ5fSJbUYVIVuBdsLFgRBwh3iWBJLMlHYVayJB0WWol/U7aX+RXVF/0cX7S/EPFGsXC4ssLbBasXPC0JKTkp4XohZyF3aXGpUtL+xcxFm1fDC3OXNy9xHRJ+ZLBstCyPUuJS3OX/rrMaVn1snfLk5d3lhuUl5UPfBf6XXOFaoW44vYKnxXbvkd/L/i+d6Xrys0rv1VyKy9WOVXVVH1ZxVl18QfnH2p/kK/OWt27xmPN1rXYtcK1t9b5r9tTrVFdUj2wPmp92wbahsoN7zbO3Xihxq1m2ybiJukmWW1kbcdms81rN3+p49fdrA+sb23Qb1jZ8GELd8u1rQFbW7YZbKva9vlHwY93todub2u0aKzZgd1RtOPJzqSdPT/Rf2rapberatfX3cLdsj1xe840eTY17dXfu6YZbpY2D+9L33d1f9D+jhb7lu2t1NaqA+CA9MCznzN+vnUw4mD3Ifqhll/Mf2k4TDlc2Qa1LWgbaee3yzpSO/qOhB/p7vTpPHzU4ejuY8bH6o9rH19zgnii/IT8ZMnJ0S5R14tT2acGuud23z+dcvrGmZlnes9GnD1/LuTc6R5Gz8nzvuePXfC+cOQi/WL7JY9LbZfdLx/+1f3Xw70evW1XPK90XPW62tk3o+/ENf9rp64HXT93g3Xj0s3om323Em/duZ1+W3aHe2fobt7d1/eK7o3dL3uAeVD5UP1hzSP9R42/Wf/WKvOQHe8P6r/8OP7x/QHOwPPfJb9/GSx/Qn5S89ToadOQy9Cx4ZDhq89mPRt8Lno+9qLiD40/Gl5avfzlVcCryyMpI4Ovxa/lb1a91X27+53bu+7R2NFH7/Pfj32o/Kj7cc8n+qeez8mfn47N/4L7UvvV+mvnt4hvD+T5crmILWaPjwIoROGsLADe7EZm41QAKMhcTpw1MVuPCzTxPTBO4D/xxPw9Lh4AtCCLYixidgFwAFGLACR2GQCKkSghAMCurkr9l0iyXF0mYpGQyRLzUS5/awAArhOAr2K5fGyLXP51J1LsXQC6CiZmeoVgkVm+Bff+9fnivk7HMvAPmZj3/9LjP1egqMAN/HP9EzazHbbTRqzCAAAAimVYSWZNTQAqAAAACAAEARoABQAAAAEAAAA+ARsABQAAAAEAAABGASgAAwAAAAEAAgAAh2kABAAAAAEAAABOAAAAAAAAAJAAAAABAAAAkAAAAAEAA5KGAAcAAAASAAAAeKACAAQAAAABAAAFCqADAAQAAAABAAAAZAAAAABBU0NJSQAAAFNjcmVlbnNob3T5NWhfAAAACXBIWXMAABYlAAAWJQFJUiTwAAAB12lUWHRYTUw6Y29tLmFkb2JlLnhtcAAAAAAAPHg6eG1wbWV0YSB4bWxuczp4PSJhZG9iZTpuczptZXRhLyIgeDp4bXB0az0iWE1QIENvcmUgNS40LjAiPgogICA8cmRmOlJERiB4bWxuczpyZGY9Imh0dHA6Ly93d3cudzMub3JnLzE5OTkvMDIvMjItcmRmLXN5bnRheC1ucyMiPgogICAgICA8cmRmOkRlc2NyaXB0aW9uIHJkZjphYm91dD0iIgogICAgICAgICAgICB4bWxuczpleGlmPSJodHRwOi8vbnMuYWRvYmUuY29tL2V4aWYvMS4wLyI+CiAgICAgICAgIDxleGlmOlBpeGVsWERpbWVuc2lvbj4xMjkwPC9leGlmOlBpeGVsWERpbWVuc2lvbj4KICAgICAgICAgPGV4aWY6VXNlckNvbW1lbnQ+U2NyZWVuc2hvdDwvZXhpZjpVc2VyQ29tbWVudD4KICAgICAgICAgPGV4aWY6UGl4ZWxZRGltZW5zaW9uPjEwMDwvZXhpZjpQaXhlbFlEaW1lbnNpb24+CiAgICAgIDwvcmRmOkRlc2NyaXB0aW9uPgogICA8L3JkZjpSREY+CjwveDp4bXBtZXRhPgpRHAI8AAAAHGlET1QAAAACAAAAAAAAADIAAAAoAAAAMgAAADIAADqph0ZK0gAAOnVJREFUeAHsXQVgXFXWPhN396RNKjg/tvguDossLF0KC7TFrRQvUHzbYkWLFytlcX5kF9/izuL249SbpEkjjbv837nppJPJk/vGMpOeA+nMu+/a+96b++797hFXP4REBAFBQBAQBAQBQUAQEAQEAUFAEBAEBAFBQBAQBAQBQWCjRsAlROFGff/l4gUBQUAQEAQEAUFAEBAEBAFBQBAQBAQBQUAQEAQEAYWAEIXyIAgCgoAgIAgIAoKAICAICAKCgCAgCAgCgoAgIAgIAoIACVEoD4EgIAgIAoKAICAICAKCgCAgCAgCgoAgIAgIAoKAICAICFEoz4AgIAgIAoKAICAICAKCgCAgCAgCgoAgIAgIAoKAICAIkBCF8hAIAoKAICAICAKCgCAgCAgCgoAgIAgIAoKAICAICAKCgBCF8gwIAoKAICAICAKCgCAgCAgCgoAgIAgIAoKAICAICAKCABAQH4XyGAgCgoAgIAgIAoKAICAICAKCgCAgCAgCgoAgIAgIAoKAEIXyDAgCgoAgIAgIAoKAICAICAKCgCAgCAgCgoAgIAgIAoKAaBTKMyAICAKCgCAgCAgCgoAgIAgIAoKAICAICAKCgCAgCAgCQEBMj+UxEAQEAUFAEBAEBAFBQBAQBAQBQUAQEAQEAUFAEBAEBAEhCuUZEAQEAUFAEBAEBAFBQBAQBAQBQUAQEAQEAUFAEBAEBAHRKJRnQBAQBAQBQUAQEAQEAUHATwS6+oga8E9TVy/VdvVTc28/9fa7CMmjRly4kmjqp8RoF+XGuSg1Nooy4qIoCccuPikiCAgCgoAgIAgIAoLAKEAg7E2P+3t7qK+hgXpbWqi/s5Oor4/6+/tHAfRgaXlWGRVFUfHx5EpOpuj0DHLFxo6Ka5OLEAQEAUFAEBAEBIHRj0APpmS/NPbQTw2dtLyllypbuqm7dzTRg8b3MCrKRdkJMVSWEkNbZcXT1hmxIAyN80qqICAICAKCgCAgCAgCkYRA2BKF/d3d1PrRB9T85uvUtXwZ9a6rp77WVurv6YkkfO37Gh1N0ckpFJ2VSbFjSin1gAMpZa99yBUXZ19WcggCgoAgIAgIAoKAIDBCCDR099GLK9rox3Vd1NrTi43cEerICDebEBNFRSlxdERZMo1Pjhrh3kjzgoAgIAgIAoKAICAI+IdAWBKFPbU1VHPLjdTywXu0Mc46k3bdjfIuuYJiCwr9u7tSWhAQBAQBQUAQEAQEgSAg0NDdT0+vaKXv17YHofYIrBIsaRY0DKdukkZbpMdE4AVIlwUBQUAQEAQEAUFAEBhAIOyIwravv6Ta22+lzt9/26jvUfyEiZRz3kxK3HHnARPljRoNuXhBQBAQBAQBQUAQCBcEWmBv/PjyNpCEbeHSpbDpR05iDJ22eTqNSRLNwrC5KdIRQUAQEAQEAUFAEHCEQFgRhR0//UjVc6+irlUrHV3EaM0cU1BABVfOocQ/7DRaL1GuSxAQBAQBQUAQEAQiCIFe9PWZFe30YUVLBPU6tF0ty0ig6ZulUpooFoYWeGlNEBAEBAFBQBAQBAKCQNgQhX2tLVQ97xpqefutgFzYaKkkCSRhwTXzKDozc7RcklyHICAICAKCgCAgCEQoAl/WddMTS5qos2f0Byzx5xbtXZJCfy9N9KcKKSsICAKCgCAgCAgCgsCIIBA2RGHza68oonDUBSvx87a6EOwkd+bFlH7EUX7WJMUFAUFAEBAEBAFBQBDwHYFOcIMLf22mn9Z1woX0Rhq5RBO+nIRomr5VJhUluDRLSDZBQBAQBAQBQUAQEATCA4HwIAox2VxxxKHUXVUVHqiEWS9icnOp7IXXyBUl/m7C7NZIdwQBQUAQEAQEgY0GgVWtfbTotyZa29a90VyzrxfKkZAnjUulPfPifK1CygkCgoAgIAgIAoKAIDAiCIQFUdi15HdaedwxIwJApDQ69pEnKX7TzSKlu9JPQUAQEAQEAUFAEBhlCHxd302P/N5E3WJ2bHtnXVAk3L0giY4qS6K4KNEqtAVMMggCgoAgIAgIAoJA2CAQFkRhy1tv0JqrLgsbUMKxIwVXX0+pBxwYjl2TPgkCgoAgIAgIAoLAKEeAPRK+t6aDnl/eImbHmvd6q9xEmjo+mTJihCjUhEyyCQKCgCAgCAgCgkAYIBAWRGHDM09RzW23hAEc4duF3HPOp4wpx4VvB6VngoAgIAgIAoKAIDBqEeiBS8LXKtpp8UqJdqx7kydkxNNxE1MpL16IQl3MJJ8gIAgIAoKAICAIjDwCYUEU1v/zIaq7f8HIoxHGPcg+9QzKOuX0MO6hdE0QEAQEAUFAEBAERisC3SAKX6nooDdXNo/WSwz4dY1LjaHjN0mj/MTogNctFQoCgoAgIAgIAoKAIBAsBMKCKKxb9CDVP3hfsK5xVNSbdfJplH3a9FFxLXIRgoAgIAgIAoKAIBBZCAhR6Px+lYEoPEGIQufASQlBQBAQBAQBQUAQGFEEhCgcUfj1GxeiUB8rySkICAKCgCAgCAgCgUVAiELneApR6BwzKSEICAKCgCAgCAgCI4+AEIUjfw+0eiBEoRZMkkkQEAQEAUFAEBAEgoCAEIXOQRWi0DlmUkIQEAQEAUFAEBAERh4BIQpH/h5o9UCIQi2YJJMgIAgIAoKAICAIBAEBIQqdgypEoXPMpIQgIAgIAoKAICAIjDwCQhSO/D3Q6oEQhVowSSZBQBAQBAQBQUAQCAICQhQ6B1WIQueYSQlBQBAQBAQBQUAQGHkEhCgc+Xug1QMhCrVgkkyCgCAgCAgCBgj0d3dR5/LfqfP3H6mvrYXiisdS/ObbUUxWjkFuSRIEhiMgROFwTOxShCi0Q0jOCwKCgCAgCAgCgkA4IiBEYTjeFYM+CVFoAIokBQyB/t4e6m1swF899TbUUx8++/v6KCo5BX+pFJWUQtFpGRSTkx+wNsOxoq6KldSzZhX1dXZSfxf+OjuIXC6KTs/c8JeRrfAIx/5Hcp/6Otqpc8lP1NfarHBn7Jnc4mcvKj1rCP6u6OhIvtSQ9r1r1VKqf/Quav3kHervaBvStgvYFt/yKCVsvs2QdDkQBIwQiGSisK+fqB//xUe5KCkGYzo+cUh9/f3U2tNP3ZwB4sJ4H0gRojCQaDqrq7+3l7qW/UI96+oG3ildeKfgve6Ki1fvk6i0gfdKTGa2SnNWe+Tk5utvefslav/+c+praVLzm7jSiZSwxbaUvPt+FJOdF5KL6QP2PLfkOaaaazauI1d0DEWlDMwxea4ZnZVL0anpWv3pbW5Uc4bO33+i7tXLqK+9FX9t1I8/nk+48BuPSknDX7r65HlcXNkmFD9hc4otLkPb4TmP6KmvoZ7qSuCE5xbPsJqD8vw7rwh/hQEfo7TAlkyCwChFINDj0miDafQQhTF42SQlqZe9Ky5OvQBcsbFEnJ6YDLIjmdQxn8MkISohgVz4i4qPU/fUFRWtiBFXbAxeLhteHvwAESaS/b19OI8Bu7sbi9ce9RLqb8MLqatr4A/f+3gS0tNDhIFdpeM7T0r6OkA2IJ8/Eq5EYR8W831N66i3CSQT/vrw4ueXdTTIlJjcAkUs8SI/0JNvf7AMdtl+PC99mMD0rqtVL/q+1hY8F3hu8Dy4oqKIYuPw/CWqyRljxJOjUAn3o2vlEkyef4V20W9qEt217DfqqatWz7ldP5goTPifHSlz6gyKH7+ZXfaIOd/6+QdUc9tVmJxVaPWZJ9axY8ZTHCacaX85muIx+XQi7d9+Rh0/fUOu+ASKLSmjpJ332qh+I55Y8YS+5rYrqfmdVzF2Yvy0kSj8fmLGjKM44J/4hz9S2kGTyRWDsT5Iwr+Z3qbGDeMcj3EtjWrhwb8H/ovOyvN70cGLgua3XqLuylXqHZWw1faUuM1OWNBm+Xxlvejr6tMPo56aKtM6Mo45nXJOn2V6Xk4IAm4EIpUo5HdydkI0bZsVR8XJMZQVF034H+JSBGFtRy+tbO2h7+s6aV1XH0UbkIXMIzKpmJ8UTbXtvdrj9WgkCnkDhzcgulYsGZjnMPmDMRKgqHk2z7Hjikspbtxm+NtUzXfcz5DZJ8+Ve5hA4nkTxi21UYexl+ffLszjeYyPzgCxl40xF+9fO5Jn3dMPUP3jC6gf2tO2gnlZbEEJxY6doDZN0g+fqj3u8iYrj6/da1arsbsbm408hvNcmNcM/J5K2mUvStppTy0czPrqazs9tdVUfu7R1FNVblg1v1/GPPRaQDXLeQ3QufRX6lqOPxC1PNfsxh8Te7aCZ4jvQxLe7VnHna0IXXcZ/h13/N+X1PzmC9T25Ufa8zV3ec/PKMy94iZugXfszpR6wCRFIHqe5w3L5ndfpfbvPsdz/rvatIzJzMHzl4cyO1LSjntQbNFYzyI+f+9eu4ZaP35LXVPXL98qYtusMiZR47fcnpJ33ZtS9j5E+zk1q29jTo+Ecczf+8PP8eD6fP1andeiPIYOrtFDuAb193r8KR+sccmXPrEijuIJ3NzJ+nvD7zm1rsjFuiIH/ADepSMtEU8URmVlU+q++1P8xE0pprAAWk/YOUrFDlJioiIOmRAMpPCLisWI+FI3HqRgP/56W0AOtbXiB9qESUQNdf72C7W8+zb11qz1qTvhQhQyMdiBXcm2Lz5Uf0w62Qkv7KPwwCduvQMl7boPpfxx/4jfvVWE26plaheTtdC6Vy+n7vLlauLCu7c6hIcbt5j8YrWzy5OVpF32HiAT3ScD8NmFvvGkiv/av/tMb+Js1y4Gs6wTz6OsKdPtcjo+z4N5F7DtWrkUuC5VEzReeLjwHMUWjqEETJICNUHjzvEO9Kqpe6tFiuPOcgHsiOfMuJwy/na8VvH6R+5UGl68AHILT4zzL7lJPQfutI3lkxd0dQ/c5PPlxm+yFRVee7+a9PhciUdBHsc7f/2/9b+ZD0Hofmv/e8bmEpvwxk3cUpG+KXsdTKyloistH71Ja685j/qwAPcUnszxIo61eX2RystOpbbP3rMsmg2SMBNk4UgKLySZPOfxiTdWeCHGmxFqY2UkOyZtD0Eg0EQhz6dYsa+3H5o/gVXkG+w3awr+qSCB9itKojyQhXHRwxvifnT29lMDSMLFFW30aTU2iCHcJz7HJOGEtFj6c0kSfVvfSZ9VdxjOAQcb9fgymojCpsXPUdPi56njx2/sx0Q3BpgrsOYaz22SMf9jErC7YoWaL3Wtxie+92Gjshe/e10ZIHkw1u74J7VRxwsrT+n4+TsqP2uyZ5Kj7zEgJPNn302J2+6sFAh6QOR0Vw4QgEwI8oYip/WsraSeWszpWYnARngMz8CYljH5RMNxjd87gW6HydbyGUcoosuqe0U3LlJEplUeq3Os9db5m/ud+ZHeO9OqwvXnmMTMu+wWSt55T6yj1lDVtRcoolCjqKMs/K4uvvs5Nb9kUqX+4duoGc85r3esJH6TLSnj76cqwo41I50IY9by4evU9NKT6r3nOR/Urgdz4lSQhZlTz6Q4zCFF9BCIlHFM72qG5mJN3bYvP8bfh9TOZHqdPefggjJVbGEJJW6/u9IwTtp+16GVRuhRKMYlJ9AwV+DmTtq//RSaz622xaPTMrFxgs2mnfaglD0OHLahYVtBADJENFGYsO0OeJnPpdhcqM1DhdyIvAsARn5XochFngSAMKy+Zi61f/254zpHkijk3VFeyDLR1MmmC6xl6YfwrlzWqRdS2sFHOa6l+a0XsUv5GzE5kIzF+Ejcc54o1y24DmRwk+P+2xVgDanCq+8F0Z1kl9XyfAeIDt51bf3vOzClXW2Z1+eT2IUfu/BVvwcuJjKbsQDpXPqz0nbkybLdpIkndsn7HKom3Uwe+iMNzz1MtbiffgmwKHvqfZBVhZbVdME8ZtVJBxsuLJhQz7nwOkr7898s67A6yZMEvuds2sMTR365MMEarsJaEiuO3F2ZIfnTR9bqzAN2vgr/lls/ekO9xNu/+gQbPOt8rUqV413AtL9OoewzLoHmi/UCgjdbys843HRcLbrpn2pB7LRDvKBdOXUf22KF8x6iZGi8hEr4fcjm/byYV5sX2HRiUytvyTp5JmVNm+GdLMcjiEAgiUJ+DlJio+jw0mR6aWUrNXf3BfR9zvUzJ3jU+BTaq1D/fcrE4lsgC98ob6NefN8cWoj7g2RkorADJsqXf1kHLUT9mzBaiMLGV56mmvlX6l94iHLyezPvH3eqDWh3k2uumq40tNzHvny6krB4hpZhTzmITD/nvJ7tJ263C/GY2/nL9yBcv6ZOWHd0rYBVRxDaSdnvcKq59XLP5g2/lz71AcXmFxmes0rkdUHL+/+h9s/f19MWtKrM5FwM+pV/+Xyqwj1lEi9YknveHIrG2qRm/lWO3//cx4zJJ6l3vo4GUPN7r1H9wluU5mlArgcblek83zhlZkgtlALS9xBXEknjmC40bJ3U+um7av7KPqgJfIM/EgdrsbyZ1yqlDH/qGamyoRqXSh99y3J9xesb3qhv/XxAsYrnvX4JtK15wy3vonkB1QC361PEEoWJu+xOBbOvhtZGpt01htX53qZmqr5uLhal7zv6MY8EUcgEYf1j9yjCSWfH1CnQuRiI0g89RqsY7yZW33QZtX/10WD+xO12pcLrH/TJnIPNHXky2Q2ziESYEGSfdrGW/736J+9TL/jBTgThS8KW26mJpK6fFu8uNL3xAq296RJDMso7r7/Hvpot8k4Pv9gaX3gcxPnHtsSgaT8xQUrZ+2Bo9F3p88Cpo3Vl2r7HCZ3nec3cc6gVE2sryZ5+GWX+/RSrLIbnWBur+urzYLZSO3ieTQsyjp1OGZOmDaaF05cOLJZY48FfYc27smc/cVwNm2UwUdyIv158D7Sk7HsYFVx5m2W19U/cS/UP3WqaJ/+K+ZS6319Nz5udaHz1Gb1F4pPvqQWxWT3+pLOWDGsMdf72I4Ko/KA+uzCR1cGaNa1Ln3jXUPvGnz5JWd8RCDRRuE12HE2bkEqNqHjRr420pk3fpNfqKpgkTIQfwkmlKbRnYaJVVsNzrF3I5sg50ECMX6+B2NrTRwt/aaKfGroMTZMNK0LiaCEKWZur5Z2XzS5zZNOxGZM/6wZlQsodWXrINsP8sY5sB4e2zu5GukEMBltimOg0MTl2t82+Csc+vNh9qPXJv6+a22dT08tPauX3N5POdfjbRuIOu1P7N//1fS6KDrD/w/wrbzd1y8PzjeobZ2H996a/3TUszzjxfIOtbkSMEYikccz4Cjaksll8/T/vGNBI3ZAckG+stV181zOw1twyIPWFopJQj0tmm+y8vm2GT9h18A3OPEqgJQbKMTxm62xKBKLtiCQKXfHxeIDvp4Sttw7oDnQgALWrgx/kzl9/pTWXzISZAfzCaUooiUL221B7/43U+OIT+uYlmtfhmS1+i+1ozD3PeSYZfu/GRKfivGOUHxjvDEkwSWCzQ6c+yqpA2PBOqFvYqX/u2Vcpf2fuNO9PNoldecyeQds59WwvbvzmxJpETiOSsj+aFcfs4YiE9mzX6fd4BEEYs+Bf2sUUMYPniieY7Kw5UMIahrmzbvJJM6rmzjmKsPS3LykgcwpA6pgJmy6tnLaf2ekh6VmnXEhZMCfRFTYxWnnCn0199pTc87xPZs1stsA7Yrxj2VNXQ73Q/GIfUqwy70qAT1hovrL2K5suJMJ3JfvMiZ+whW63qbuqglaffJDy+apdyCTjWOzuxWEBpitMpNU/cGNwf89YwI5/6WtLDeGKmVOV2a1Zv/Ngkp52oHMytfrGS6j59efNqh1IR/8mLP7R0t+XcgrPGvsWmqn8zuB7OWBSOGBOyObE7GRex7zCrJNFNz2sfEGZnZf00CIQSKIQyn50UEkiHToW/qOxU760qYueW95CK5rhyxfH/giX/iPMjSdBWzEpJsqfqlRZJgkXQ8Pw9dVtBP6R0uKiVAAU8Im2MlqIwvLzpyi3M7YXPFIZ8Mzknjub0g+fRqtOPtjW3HakuhnSdvl3hDWHlaTDFDr3LGeaos3vvELV155vVW3kndPASueiePGeBUsCb1c0PPfldz2/E4MqeE8XXH4rsfsTkeEIRNI4Nrz3Ayk8L+f5XTvMi4MpGceeQTlQogmldMIfaBuUSNhykC1N1JqjHsoPcO/ggm9/Xmuwj/8omOSySwLl5gcKESyhHpcyjj6NcvBb95R2uOVYi80AdkUWTCm8YZG6/mC24a47IonChD/sQmPuXuC+hoj8XDPnH9Ty+qvafQ8VUcgDUNWcswZ80Gj3zreMrN7MpqtWwqYGq888QpmqmeVjx9O55801Oz0snU0z11xx+rB0rE6UiUPqfocNP4cUpal3w0WG54KRmLznQVQ4525HVTf86xGqvfsaR2X8yRyNqMjjXv5Wqwo2M1x786WGhK9WBXaZcP+UNt5RJ9vlHHKe1cNr77lO7SaraHxsdmozuR5SwfqDrFMvsvTZuA7aqHUwN9GVnHPnaGsCrvvfhVR3/w2mVRff+b/wEfoH0/OeJ1gLrOm1Z6gJpmbKjMEhFvGbbwuT0TPh62R/z2pNv/OLte6+efD1VE19COhh5xfIqCJ+Dsue/0zL9ymTWjV3Xa2uz6iugKZB43XC60zEGZsfs0nbssOw++/lm9CzD3kXz/PJTYPOhJh3JsugtWcmaxHgp+nlp9RpXgBxFHQXHF8zacgEIvvhZSIwkKZ5nn1Jn3ScWvx7psn3kUMgkERhPPi7qdAm3DFvwI80BwqpRpCQh39rolUtvX75LEyLddGMLdNpbEqs32C1ws74qaXNtArBTrZIj6Wts+Lp07Ud9A0Cn8BbtW39o4UobMQ4UHPH7A2bkOx0HX73ovDHwR7CRZRPV/i2W3vrFcrHcR8HR3Hg/zBcriNU/SjAHDMFc00nsuYfM5SrDidlNra8qXCtlI93t1uqrj6XWmByHBLBvKPw6gXK31xI2ougRiJpHItHIChv4flyNdboOr4Hvcs6PU6H3/Xcc/7htJjj/Eyi8/qIgwfZaUAPqxxun5L/9GcEPjqL6h+5K6TjEkeMZ0UltyizdqwtrObz7rz+fhbMvUf5LPS3Hp3yEUkU5lwE07zJR+pcX9jmaVz8H1o7V38XLxREIZMCay4/LSQDEN8YJhTGLLDWeOGodfWLzLW01A3GQDHm/pegybS57f1mleBVp/6Fus2CsGDyO+befxlqRXkumu0aSkbAltT9D0dU3C2ov7MdE+kl0GB8zZHJAfveKQX5EZ2Satfc4PlyaF5yVLhQSUzhWBAN79g21/HbD1R+9lFEHMUwmGJD9uo0zcQhRy5cdeKBptlTDzhcmXcwqcYadRz1VvkD5F1pE1k9YzL8En1nctYgGfeffx92GnpMfK04cjdzzTj0ady/v9AKiNHx87dYDM6BiegPBh1ylsS/7/zLblZRH52U5ElDzYLrqfk/zxoWY1Iw64xLB4LcgIBj8irhf3ai2Dxr/5BcGUdd5DGOfUOFQmLQp7KnzXd92Sxh5bR9LbuiY9JuVMEK+Ce080/K7huK5z9uVFylrcRvoBvRTUdKUuGvM//Sm0eqeWnXC4FAEoUJMOk9cWIqbZMTP6SVZgQUeWxJE/3S0K0iEiPmrSPSkAOPsEnzjC3Sh9Tr60F9Z6/SIkyNjUYV/fRFTSc9saSZOuEGKsp8uB9sbrQQhXxBfW0tGEObBoIGQrODha1klv4ZWuR4b/ojbBWQftQpaixnSwoeGzuX/EwNT93nyDedkRYMb2S0wL/12lvM/fVlnXQ+3Oy86L8mCEgaO1c97FZGKwKwFaAa7VgVd58re+5TR5YrbFmz4m87B21zyN0vrU/M/WPyiii2ZBzmGeMwD8sdcFXB2OCcCoaF7y78UGvvvynk5ujZZ15Omdi4VvPf6ZO0Lon9r/Pcif0eRsXFqd8bR4/u+OZTLZcd7kbYSmrsAy8FNPCfu+5I/4zUcazpjX+rDZBQEFF8j311LeXk+eC4A3X33WDop9pJPazogx+67djrqE6bzO7NAGXyjHVT00uwwgyRmJk9B6P5iCQKxzzyFCVsOpxpDwZAwaqzc/lyWjVFn+wMNlHI2jzsK4w/QyU6moCV0PxrgwagnSRuvxsV3/qYXTZqRISxmtutd0jS4DeRHbl6S8WFxw34MPE+4XWcdsjf4Wz0eq/UgcPGFx9XRIzhSYPE0if1/YdxJOalB21tP1Bi4hSDCVU01LXZh536Q1Rq/nTBLwVPcplQJfwxacMBMnoRyVl9IkiGivqHgCMx2bnEJrI6wTfqQPauA+kbEgHBVnLH05QAs2hfhSOGVc46ybS40114nlwvO2wH+3vj1SL7vCm57wVLXxRtX3xAlZec7FVywyHXMXbRBjP7DWeGfmMHwFVzznbcx6G1DD1K2ecvVHDVHUMTNY7KzznKVKs5DrusYxEJ2KkwAcw4tX/9idOiPufPhOkG+z81EzbpVgS6WQak554/F47Kp1rkMD61/PA/2C5G3RMd4xpIbap0wdn+SEnmcWdTNhbwIuGBQMCJwk1AFGYPJQr5Snni/U5lO32M6MJV7UxAaTBy6yHiACQnbZZGu67XVFyf7PcHazz+UN9Fj4MkbAIQOiQhNzqaiEIzEFdM3nWIb1yzfKbpIHVKn3zfcLOH/VOvufIMbZPNVLhpyIe7Bm9hbX7WWjET3kzjtiqwoamjIc1+cWOKS+HuAiQVNqnj4S4mtmgMXGkcbKvBmIJAbG0fvxn0dsyu1Z3OvhLZIb8TaYMfv0rMhe2EN7qj1s8rB+eZPN8EbrSe5ByYZ/YoIlhZc/BcE3NMdm/SA9O9HkTIHmLdgXLxm/0PcVRWnvMnbLWDlo/yHpgurjhyV7suB/48+lt0w0IVhbbhmYXm9WPDM/2wYxFB+RRTf8H8THLQv/qH5tu+190NsWumIpgoiughEM7jWNtXHw/M87E+C5UUcJAouBMKltTCkqjhmYeCVb1hvYEal+I32wbuyq5UCiP1j9wJbcY7DdsLSiLGlbJnPlLr+KDU71Vp5BGF8JU08b3/wicd7+5GrvALcsmeeHFBI0lHgkkU8guo4vxjVRQ2nb4EKk/Jvf+mBLz0rUSpicP8TUcKr3uAkncz187hXaRVx+2HCW2dZXXs86Bg9l3D8qw4dk8tv3ruXcRhFaxPWHn8/lqOrNkXw/hXvtX218Sh1/n6rCR+062pBH4hzUwhrcp6n+PFnK4vqSr4s2mBXxtdYZPIBPSVJ4XRGdlqAs8+DbsweVQak2jbShLgL4/JQl/FbuAvuftZRw6j7YhHq35mTjuLsk++wDQLm4Mpf6ImOdIOm0J5F1xtcnYgmSchVdC067MwgbWswOwkXmgckMJJREXWkFx66Ham6vusuVl048NmLZqm19w5F74o7TcTTCtweIJ9OJY9+a56fs2K6jwXOTD98PZ3ZFafZ/qSA6BhbaPlw1o0WSDjzKTiAvhPRJCckRAe/0rYmTZcVIiEBwKBJArh5o+OHpdCuxUkGl4cE37lbT30SfUAYdiLqZLO+6YbGeftnKMCkRhW7ENiD/ryKfrx4qpWagEIOv1wN7MxEIWrTjqIOHq7r8LaTxMw1zETdgxffd1Ms9ND0jnSfCZ8R3mL1VjGbhXGw1crS9fq5dTy7ivYEC3H/BwkdXQsxvAstShjwisW5CD/Ra3XqPRspxEaJRzkw06KblxEMQVjgt6OXT/sNoqMyusEyUpHBOCcGZc7+p0YtdWH9VE7/JW1f/855oLbKKuN6JQ0o6yWaabuhixLBeYka4/Glm2KeesXhhUyWcsBUHi+qyNs5s8+23U1UkvgQ9yfTXOdPo2WPOE6jvHargKKPLr3PBD3IxouJcqe+VjLnY8v7dU/djfVP3y7L0V9LhOocclz7cuxDtitwJANDZ97qFcwadd9qAiBXEMlEUcURufmwzm8c22SUAHqpJ2lh8KJPwIE6EgwicIa+GdrfN75wntIv2Gyy6Z/HKkSswNi7ba+libqWrXM0NxU90HnIA3KVLh8xZDmjA44etsY+Dx0gUw2khr47muEDz87MXPuvOzgrbX8p+VecI3aHTRrh3fHWz952+z0YHrynw6An5F7B4/tvrRBU6ryouMtsyVstT0W389a5gnGycpLT6a2zz+wrZp3iVmDKm7MeNO8ndBwYkfadn6RCq65j1JgAu6LVF1zHibxr5oWLYU5qY6pq7sCO+LRnc/ok3fASqARGIfFiZFw8JoeaHiaST4cW7MZvJmww2AOstLf0WaWxa/0zGkzQHTqLfK4oS6YulqafXv5/tHpXMvHb1EVopz7Kjy2sGYmE9gxuQMmzkxo9sGfJZvHsUk5+1P1FNYqZu1iK7HTBuWyvODKOPJkq2qGneOJzNL9NhmW7p1g5/+w6voLlcmed7lgH7PGM/9+E7bYNthNSf0OEAgkUcg6ggcUJ9KkshTLHnSC+KtBBOLXVrfSd3X4zfVbE4adCDzy4J550PjT10K06kAXIpa8Xt5K71Z2UDv64oQk5Ho3BqKw/Jy/++XOgX/vZc/91/Q2sFuc1WeYv8MGC0IzsWQBNqA33Wowyf3FSltI14WKuy6zT50gKkx0lf0L/nQxZ/ZVdNpRZnj91ooIOTOuwLvlJEfdqFt0G6xD7rEskzllOmXDZ3O4SB0IiXUgJkZKouEzky1yjITXLE43w5woUKQfcYIK1GjUtpM0tsgIhIKBkzZDnTdcx7HVZ/xVW6PaDDPeuI4tKKbo7HxlNcTzVw4UYhaVNxvufTKPPtWsOr/SR4q4D/S4xBaYq6D4w/66/ZFoBGaJKSyhqNQM8CVdyq1SD1xvGCo1Qfu4+PanKBFr+VBJxBGFcVttQ6UL/SS1PNDt74F5ZWcHRScne6SG5uvKk0+grp9/0GosWEQhL25Xgmjw5UGPxeI5FWrJHHSDF9LKH4jX1TDRx/45Wt5fTO1ffQSNsBVqd6sQi8Do9Eyv3MaHytSBCTAbLTIunXvh9ZT+l+GLc/a9xi8BHQ3OIpgwJ4Gw8pZlB26ppXGVN+sGRE8+0ru4OuZnbTn8u9iRMjHYwS558JUBMw3DmoYntn7yFkx0rMmQBAS0KEFgi1BLxcxpiOz6qWWzHEGZSUwzotezcC9MUvjlaUWQ+XOtq+FPxtRPHxagE17/ydFE3zvKtue16HxP2nkvmJAMV9HvRfCP5UfsYllF6VMfWGr02ZlkDakcC7GkHf+kfovsq6q3tgq+RWrVxGNIPo8DM1MwjyxDvtpNIpwSj1x5+dlHInKzucbKkA6sP4jJySd2Q8CmF3FjJxhlGUzjSXTbV58o7bvu1cuI71c6ytqJDlFoFFnNrl4+v2R/uOew0Vi3Gqu4jlAHR4oFzhnw6ZR6wCRLc3vum0joEQgkUchk9haZcTQNfgqz4o0397yvsAIBRT5e204/gDBsA4HX0dNPvevnBW4CL9BEYT1IygU/N1J5q28BVjYGorDy0lOwEfi+9+3SPmZ/bGV4T5lJ/aN3Uf0/7V1YmGnfK9cffzHfdPBnruDuc/u3n6motu5js09//a7qtsMb9nZzZl8c4tcuuI4anrNeg/nyjjbDKxDplZecRG1ffBiIqgJah91zb9aYjvWQu2z8JlsqH+7uY6ef3ZUrqRwBJTkgUOI2OylrK921m9O2Rjp/OI5jOnNEQ9wwV0+E7+6UvQ9WgQVZG9pIeluaEc3+MwQSeU1t9vTUVCF43pHECi/ud6pROX/SrFwLedfLPskT4Eu7r70NZPs66kX/ejngpA8S6HGp7sGbad1T9zvuCUdtTtxlb0qF9WLijnuYxiHge9EKBZvWDxdTF3gUJnfZP7vO2sJxpywKRBxRmLwnVC5vvMXikpyd6u9EIICpf4fWxjlYAO8EJ83O1dqdtbghd+UlF1HrB+9uSLD4FiyisP6Je+Hz4laLloef4pdbztn/8Elbi02udYgg71a1gpqgEKtLs6p9bNHYwSqYlWeiwM6xPxdggq70WZi2G2glLmGH3RrBOPLgfN/Mb1/1vAuVw+zBzhl9wQRPOSqFfxEnohMaPgEv+hLsRoRadHbqim97ghK3tSa9PPu97ukHqO6B4b6I3HnYnGjcq9/5tAu6HJFoe+Gf0Uh492fcC18YnTJNs9MASNhmZ7ysPzctzyc4uhZH2fIUOx93dhNRXkCtPHoP6oX2r44YaaDxb5q1O9vhu6gdgXQ6f/hqg78qTFaKbn5U+RTSqZ/z8CKEFyNmknPObJjiHmd2elh6+w9fU8W5wzcPhmV0J6DP6YdPo+xTZlIUTOKCKTpawGauEOz6pTNe2Wk98iKBtU2DLYnb7QL/TKdSEiZPwZqcBvsaNob6A0kUsmZgcowLkY9TaHsENHFy31sQifj3pm5a3dKttA3rEVmE05rxx583wPRYl3y0u29MFN4LorCirdcuq+H5jYEo9Deiq1X0ddYmLIcLhH64jrESdjdSPP8Jw7lb55KfaPXpfzUtzpvdhYj+64+smXsOtcIMzU6KbnoYa4097LKZntdtx7QCjxPs/1jX5NVdTCeoX7j5ll0+acdhGv/u6wnVJ69NhlgdYJ7BJsesbOFUlOLDWcbKCN51senzuBe/8k7WPvbeSObfGL+vR6OE4zhWcfGJSsnGCd688ZF7/tWONVW5DV/X6Lr94zUCm87rSunj7wxZz3M5Vrjp/OV7pXzC9bESgJ3yDZcL5LjExCUrWTkyB8faPvXAyZRzxiwoSmVxlxxJsO+NWWcijihMO/SvlH/FbLPrcZzOROGSvaE9FhsL/xe7YIF4BBYru1JUfLzjupwWqLp2LjW/+pJWsWARhbr+8tydTJ+EBfRps1SkV3daqD6rrr0Afu5etm2Ogx2wDzn2IcM7EJWXnaLtf9HKZ9eS/Tez1Jxydyzn7KsoA+r+nsKaX7X3zgNJ+IJnsuF3o6h9hhm9EpveeIHW3nCRV+rQQ3999w2tTf9IJ+LvuJe+xs6KPlHPQVVWIrKrlYx58GXbqMHe5fmZWf63nbyTB49Ze3bsw4sHj+2+sLbZ0kO2MfW5xyYB7MevHNG4e+DE20y4XW/TejuTWjuSqePX/8Nu8d/MmhyWrhsFjQmm7qoKFY3QiYk2N2jnS9Cpg+W1t15BTa/qadHyTl/h9QtDNhHu+A2L4OnWJnU60eGH3SgkLDtoK1tn+bkXXgcN7KONig+m6SwMBzM7/MK73BzVORkEoUj4IxBIopCvlrUKx6fF0tlbplNiTJRPALTD1LgJ5GA7tAv5rwsM5MT0WJCQvtXn3YlaEIV3/9hAazuszTi9y7mPNwqiUHNu5sbE+5MXTWXPfzrMKoXfb7XwUc3uMayEN+9KOMIr3N8YScsHiwcCdRmdRJpOYD2ToiqZg6CsmIK5iI1P2LgJW9BYzEl8Fd12YuEmoxubd3YyDibQ7APaiVTffBk1/+dZyyJmmp2WhYJ00on2nZMu8DPLrnxcmDOwmyW2KLC7/+xvOLaghPpBdPCzwJGafZHqGy6mZkTA1RF/iEIenznYWicsstySf8VtFMsRptlcEq7ARpM5su4a042F92egxzHWKFtxNCx4dAVuinLPna1c3jjZeNOtPhD51v3vQqq7/wbtqnSi+/Iai622WhGQ0UoCOS458ZvLfeK5Lm8MJGJDK9Ik4ojC9KPgmH/mhQHDeZAodNeIcPRJO+1KebMuw6Qjz50alM+a+TdTw7NPa9UdDKKQzYKXHoJgIjbmae4OBlpt112v7ier3bIJAZte2AkTYmwy2PDUA4jkXGWXXZ3nQb70iXdMtYiWsM+v9WZOVhWyyWI2fL+wyjT7aOxa/hs0RxdraW3Fb7EdFc1bqDQjrdowOtfy4etUNfsso1ODaRzMZAx2kUMtOrti4/79uaNdFjttOr5GX3bvOzHB5siFZsLafyW3P2l2elh6F0xRV53w52Hp7oRYRE0sffRNmMYgejFMuKyeMW+NvsZXnqaa+Ve6qxr2afebbf/+CxXIaFhBswTsiGUj0jWT2cGaiNhpTBTd+rgjDcXyc4+mDmg52gomWUXX3ofx35kmr229FhmYTF05ZS+LHJhgZGZjEW0/5nlXwuS03S4rk3Q6Zgytn72nTLcYR/bJyJHR/RW1uMdYxH5zRCIDgUAShbAcVhJF/bRDbjydtll6WIKwFlGXb/+hkRq6hCg0u0GB8GWahsjuKXseqPxm8byJXZVojdvQzMqbdROsOCaZdY8aXnicau+cY3o+8/hzKPvE80zP251YM+dsNcezy5d/xXxK3c9cs9GuvG472dMvpbr7rBfjUfEJNP4/P9g1Oex8zV1XU+O/Hx2W7pnA0Xtzpl/mmTRi33U20J10jom3jClnUvpfpwxRmGAXLPWP3EFNL5tb7HCUZg7Q5Y80vvg41dwxR7uKuIlb0liQ6DrCxGAH5oQcZK3t6/9S9/Jfrd1SIVhd0o5/pCz4oHaqmarTn1DnCbdxTEU6vnio0okZJuzLPH/uPZSMQBfhLE6DmPDvLe/y+dhMtp4nh3pcqls0H75aF2hBzZZdxVi3eFo6ahUMk0wRRxRmnHAq5U4/M2DwDSMK19fsAsmTeew0+Eo6EP6pxgasPc+Kau9dQOsefcgzyfR7MIhCjlLHUZ50JJBMvE57ZnnYn0LFeUcr8s0sj6/pdtFFl+w70deqnZXDgM+L98ypMxBpL0e7rE4EVSNtOCZg2SkrT3RY87GvuUGpnyeAtHTqZNmss1WIWNiCyIVWMpYDdmAnXFca/v0Y1d411zw7nL6Of/FLU+LXrGDbN59S5YXTzE4r8182A9aVlg/fAIE7wzR7IvxvFM9/XJ2vvfd6bB4sMs3Lu1JjH3t70H+bnfl13iVYQB14hGl9OqavRoXZB1/uudgdLyo1Ou1XWvn5UyzNsMfc/yLFb7KVdhsrJu9i7BTYqwYz/6Ze2QJ6aOc7y90YL+h4YacjHN2dd6JXw6+QLVEI8xRe8DgR3r3tg78iboc1KdhPKGv3dmFR0fblR5Z+Qz3bYV+EOWde7pkk38McgUAShfFRLtqnKIGq2nupEr4Ht82OowNLkikpQJqAgYKS/SLe+N06grKiTxJKjUJ+lxMW70auU3zqvGYhLZcqmnX5mo0tSdhdRPLuwwOY1cG/4Tr4OTQTXwJGuetqfvtlRGS+wH1o+hkDTbLSx97yWQPLSTtMSFawT24L4Wi7pY++ZZHD+JS3KapRLiMNTX7X8XupF1YTvXAHxO8PQkAX9gdu5j/NqG6naU607+zq5qA7hTc/QvF41szEksjDRqvyGW2i+WpWJ6fz3Lzuofna1hHuujjSa+5ZV7gPTT/ZFzy78umElYlTiU5OpbEwEQ2U70I2LdWd7zjtq1X+cBvHdKOo8+9IuSZy6K7KCotgndMJhjSsbfxuMo46hZiHiE5JHXaaE0I9Lumaqcfgt87BR1iTOFIl4ojCzNNnUM5J0LoJkJgRhap6+KmL33QzSj3kMCy2D6boVOMH1Neu1D60kNYtvFereDCIQtYSWXOZfVSjuPGb0ZgHXh5mFqLV8SBkYvOL8hmTqadubcBqT9hyOyq+8xnTa+SdNp0oogHrECpik9SMI09UhKHOS7P9x28wOTzKsgts2puyP4KAYMLGC3wVjKKh3lSLLWWfv1DBVfZOxC0bxUmdyNr5l92ighjY1cXn2S/E6hMOoB7uu4nwPS25+zmTs+bJze+9RtUc7t5EnAbnsPOvmXrA4ZR/2a2qNV7osT/Nzt9/MmmdKPv0WZR5zOnqvN3LsRiBaxLhr8RMOIiR8rPhFbHXLP+QdGhysM/EdGiCJP7hjwHTMFyJzYtubGKYSemT72m/dPn6lrHWtI3EFpfS2H++EfIFNndrCYIkES/wLWTsP18fDKjCC6zuNeUw7S5XflfVZ3WFMvXuxaeuv0luLve8Ocofo0XTjk6xD5UqRCTX8dWVDY2TTGieiEQOAoEkChOiXXTiJqm0dVYczHp7qRF+BnMSoikbf+Ekvzd20c3fN1AMiE1fJFhEIRMHrZ+8PWC1AK31bkSL53GBMC6z5kIciKDYMePVOzVQG35m1x9IMsasDd10fu9nT78c770dBousvX02Nb30xOCx95e8WTciAN1k72TbY56Drj7lkKG+50xK5Zw7hzLguscXcdoO3/vKWSdaNuWrdUn9k/dR/UJrP/Fx4zdXQQvZmkfNM5kgNPH5zJ3MPX+umkdYdtjHkyuO2j0gawWlAb/gOa3N0YpZsHyCVp6RZGNzLBObZHbCc0HWrO1c+jN81H1MvOFst/HnXSevIcY+9CrFFo7xPjXkuOG5RfALff2QNKcHmbAyyT7tYqfFlH9rJil5/OLr5WBwrLjgguuouJJSNYbFlW1KaXCRwtYVwZRwG8c4GrudggXjwS7BcjG+RII48a/pfT0u+AxnzXHWPo/3UioJ9bi0esYRWi7NCmbfRewCKpIl4ojC7HNnUtaxUwOGuSVR6NFK3MRNKP/qeZQwzjefEh5VDX6te+xRql+gR8IEgyjUdSo6Epo2gyCZfOn4+TuqvGCKrQ8uk+JDk6HBp7SUvAYez0y8AF56AHwUjoBwNOCiGxbZmiN3LvuVVsPPXUAF2Ix/AVp5iUl+VcuRoThClJUkYzAtxKBqJ72N9SAjZto6+HXqy87drp2mYvrkE7FDe6U7u+2nnY88b5+UbKq8+oxJppNCnrCWPvWe8sFZc8dsanzRfAHEJqt2k6ta3JcGHyJ3eV44T2jSEG08/bBjsaHinwnh8kk7WUY1c+LLUhH8TMTZBCEy0oDwvL5gfl9x5G62PrjY3L2/qwPEYDn8rpqT4077aeRP1Wkd3vntAge48/tr7ueuRz5Dh0AgiULEMaFJpcm0b7F/75ZgX/3bFW30zLIWig4TopA3PzjgE2uT2wX4UNhAGyNln0Mp64RzffaJZodx9Y2XUPPrz9tlC915aFWqQE3ryT87k92Cq++llD8d4Lh/lZefRm2fvmtbjolbtphwIcCaL+K0HVYCsHND46sZbAPMjmthfhxICUTUaaP+BHJO7O32xag9d5qV72GOclqMgDZWwpr5/Mxq/b5NKmKirXDOXbauVFhpYNW0fanPZrPSpJnBZCcmzlyI2617+Hb4WvyXlvsrpTgx+QQV9MzfOeZgp72+hN045oKf3X57lxdsZRSHze5IkdUIxOPp99KXfvP4lQbLu9T9D1cb/KEelyouOp7av/7EsuusKV369IcBU6KwbCyIJ4UodAcz0QEZk49UBFNJP2wSdiu31ilhmafuicep/u7bLPO4TwaDKOyuXIWIlvu6mzD9LL7j6bB0wOnUmajZBfIEmv+spB9Ew1KOejxCwlqdRTc9YmmKrBPcw2n3WZNx3Kvfm2pa6tZnF3RD1YMFTQ4IuPS/HW84sLJD85YPXqeGJxbY7hD7urvJ/ah/5E71Z3ZtOs+LZ9k1/zjT0smukcl7w78eodq7r/GsZsj3rFMvoqwp08lqB5R9ZI57eYMT6iEVeBx0Q7OUXRD0wzTIX2H/nDyh9tXPXz/8pSpC3swXKJ6RCW/+6uh5XIHIZKzVYCU58CmaceRJVlmCds4uInbQGkbFdj4sfW17xbF7Uk91pWXxlH0Po4Ir9d5/lhXJyZAhEEiikEn83fLi6diJaRTrIwkXigt/6JdG+qK2i3ztYqA0CnlsZDKu/uE7tP0uD8EH89fMo08lfncE2r+s1XtoSB9CecDziXNmKy2+CkRNbv/O3M+rL5FcmxDQYy0Ce+hI4XUPUPJu9nNto7p8acfO3Qm3kwiT3+JbHzNq0jKtafFztPamSy3zOD2pQ545rZPzr3vmIfhqnOdL0SFlOGiJsjjCM6UjPLYthyUDm9B6S0x2HpU9a00w2Lmg8a7T+5i1avMuuVlrY2AdXN3UweWNlbDlCL+vo9MGNoH7e3rUHLwL0cTZZ3FP5UqKHbcZFd/yqFU16lwfNEt5k6MRmx1G+NhVwFZRHIQtGFpaYTmO2QECZY4J//nB0ZzYrspgn9cZn3T7oJ71S2+BP9svQzouVc+7yDY4aeIOu2v9JnSvdaTy/T8AAAD//zm7mSUAAEAASURBVO1dB5wURfZ+uzubE5vZZYlm8czx9IyHGBAxB8wYMGNWMCsqnooJEx5iPPVQMZ2K552envHvmTPKApvZnPP+31fYw8xsd3X3hN1ZeI/f0j3d1VXV3/RUv/rqhZh+FhpiqV20kOoWPuSoF7kXX05ZRx3jqKyTQv2dXbR8792cFF1bJj6eMo84hvIvvMj5NRYla59+kuruv9virP/h7NPOoJwzZvofDPFTX1cn/XbARNtaxjz2JiWM3di23FAUqHl4HjU8tzDophPGb0qjH1pKMfEJ2jr6u7vo18lbastE+mR88Xgqvu85isvMNm2qt7GOVhy2s+m5YA8m7/gnGnX7Y8Fe7r2uu3wlrTxhP+9n3U7SxO0oedtdyZNbQMC9a/UK6vrtJ+r44Uuivj7dpepc+uTDKf+y2ygmNta2rFmBmgdvoYa/LzI7pY5lz7iEsqefbXk+8ETpBcdQx7efBx72fh55wwJK+9Nk72fs9Pf2Uuk5h1PnL9/5HTc+xGVk0di/vUtV866g1v+8aRz22yZuupV6tv0OWnxo++Ijqrr2bOptbbEo4e5wxtTplHv2VRSbmOTqwr62FvptyrbW13jiaeNlP1ifNzlTet6R1PE9PzsayT1nDo048lRNicidKrv4BGr/8uPINaCpOf2AI6ng8ts0JYI7tebeG6hx6ZPaixM32ZJGP/yKtoycjC4EullbfK2sg95e2Rxyx6B6FiTH0cmbZNC4dA/FxMSEXGe4K+jlPs7+rJaaceNBCu4N94h7DVb6e7qp8qZZ1Pr+W5ZVYKz1FI2hvpYm6qmp4peIeZ+Ttt6J0vedQjFJqeTJzqGECVvwNteyXicnyi47hdo//8BJ0UEvk3veNdT81ouW71J0aNS9z1PyVts77lvnrz9Q6QXHUn97q+01KbvtR0VzH7YtZ1Yg2HZaP3mXKq463axK77GUXfamolsf9X52utPy3htUecP5Tos7Kpd9+qWUfXx45zdouOzyU6n9/9531AddobxZN1Lm1ON1RQacW3X6FNZbfxxwHAfGv/QZ6/FZpudwsKtsJZWdeyT1NtVblrE6kbjFtlR873MUE+dsvGlatpSqb7vUqjrCHKBo3qKwjM8Yl8ouOZG6V/9m2V5ceibF5RdR75pK6/tn3R66S9KmEzeYccwKME9WDo174ROr01F7vP7ZR6h24V8s31NuOh6blExp+02lptefc3OZbVnduIS+1/9NP66n7X0Qjbz2Xtt2or1AzHAjCnMuuJiyj5seNlwdE4UeD3nyRlLOuedT+t77OB6EdR2tffIJqnvgHl0R77lIEIWovGT6vtRTscrbjtlO0R1PUMr2fzQ7NeTHQCStnjmNulb87LovsQmJNOqBFylxwma212JSs+LArQjk6lCKbuDp7+2hXw/Yioi34RBPdh4VzX+GEkaPD7m6fib4VkzZhvo62kOuS1cBlIf8S28JmiRE3dXzr6WmV5+xbMYtUbjypEnUXbrCsr7iBUsoiZW7QOn44SsqPf8oS3IUL7GOrz+ltk//E3ip+pz6x/2o8Gb9i8z3wk7+DVUyWdjNSmo4JGHjLanw+vspnievTqWnroZKjtzVungQRGHVX66i5jf+bl0nn8k++QL1py0UoZPVd11NTa89G6Ha9dWm7IRJwGP6QkGcbf7Xa1R18yztlTEpabTRa3oCV1uBnBx0BMJJFKrO83v1jyOT6JgJ6RQfG31E4c+NXXTH1w3kCaFvoRKF0D0qrzuHWj94e8D3HT9mI8o+6XxK2nJb8vDk2lgcw3sWC2v1Tz1A7bwIZCcgA/LOv4bf9RPsipqet3vHmV40WAf5nYFFx57KUssW3RCFIDtKzz2CepjIsBNPVi4VL3wtKCI2lHba/vchlV96krZ7qbw4WciLlG6l/ctPqOzi8M3BsDA86s6nKIb18XAKdPWSQ3egvs6OkKsd99z7PP8rdFVP+ZWnWepmxTzvSNp8a219PXVr+Lf7McUmp/DCcQ91lSynNiY9O775P+11OFnA5EQ6kxROBGPFqtMOtPx9ZB13FhupXOakKm2ZnvpaKrvgaFP9EnrIiGPOoITxmxGIL0N6mxqo9eN3eRxboNWhjfLr9Thm3GTglknTjd78jmJ4nBtu0vLuPwj6uZMFl8G+N7txyY5gR3+T/rAjFd8zNLp9OPESotCBRaGneAyl738AZR5+JMXnrBvEQv0iah9fTHUP3eeomkgRhTUPzKWGJfqJYj5bnGQwAROtAlZfrUy47GDeRTdR5iHHOb5q1YyDgiIkeSmOlfhCii8cTbFpmUz89ColE6tqwRBnxWwBmcTWYmbihPg1u873GIidlN32pewTztWuevpe42R/9dmHUedP3zgpGlyZ2Dga/8LHIfe5at7lygLBqhNuicIVrKz2NjdaVUdjn32f4vn5MBMdaQmrwji+rmv592aXUtqfD6WRs+80PWd1sK+1marumE2tbDUQDsHqMBYaEjext1xGe908mVt5/N7WTQdBFLZ++E+quFpvrZC+/2FUcCWvbtpI+1efUk91OcXljqTkP+wQFuWsYckiqnngFpuWI3MaFtVj/vqPsFcOi4hVJ+5nW+/4lz61tJC2vVgKDDoC4SYKQYKBhDtifCrtXZgy6Pdj1+DiX5rok6qOkKxpQiUKG156kmruu8Gvq3Gp6ZR9xqWUcfAxvGjt8TsX+KH1k/eUtXgfL6rqBBP0orv/5posjNQiakxyKiUUj6W47Hy2GkqmPvaY6K4opZ6qMt1tmJ6DtaWOMHJKFPa1t1HZrGPZOtH8nevXOOt9sMRKYRLWrYTaTvvXn3E/9botLHBGzrnLbdeou7qCVh7r/p78GmJyAx4PaXsfTCOOONn2Gfa71uGHFva0qLz+PG3pmNQ06rfxosBvbfyrX2jrMTup03edEIVmdeJYB+vQ1UyuWFkrogyMWsY+/W/H+kk7k48Vl59i/hvh7yqV5wMJvCiB3yEslXtqq1kPqlCWgXgeso6eQTm8cK2TCv4uAr1f4nlhAgsUdr8ReNjUP/0A1S22N6xZn8cxK3zxXWN+ORyli+fBsFCG19iQi4txCST2iiPYqEFjmOMpKKJxfzM35Bjye3XRgWFHFGafdR7lnHKqi1vUF9VZFGKFK+OwI3kQPJaJHlZW2KownFLz6CNU/9eHHVUZKaIQL4iyC4/V9iH9wKOo4LJbtWWG8mTDi49Tzf03uepC2l4H0sjrnJG0RsUV12JVf5nxUbv1jCymzGknUsoOu1M8W+TBejFQ4GbZ/O/X+Rm4k3oa6gJPW34ecdRp7NY52/S8YxcgJlxATnkKxyiLr/ii0epFk8hWYG4swEw7YXEQbrLNb71gcTb0w+FavamcezG1vGPtEumGKFRWnvtvoTWvH//iJxQ3wnwBAgTj6lP2J6zGupUMJsHzmQwPRpr+8TytWTA3LCt9sHoZ/fDLjtyQu0pLaNVJf7buchBEISwLVkzbifo72izrhcI69nH9b1u5c80+w/tdwiIOltZw4UrdeU+lnFs2oDnhxE1Mc7nfKfQJv+HkrXekXrZIaPqH3pIyLmMEjV9qb6Hg14iDDyAPYM3Ry26QOile8AJb026jKyLnogiBcBOFxq319PXTqZum0055SRTHBEs0eCG39PTRnE9rCfccioRCFPY21FLJ8fv4j11MDBbd9lelW6BfeMd0c3gOLDoiPElcWvqA7rawy7JyF7UJ3YEQMxir3Vh32VqBD+iNxQGepKXtM4XS9zmYEjf7A3ly8k0Ldvz8LTWw2xqsURwLHigek6zECVEIr4iKa2ZS20f/sqrG7/gItsTKDcISKxztKG8EtnrUSbBEoSKGD5hIdsQz2oZLoIcJDJAYa3VN3ueF6KTNtwl5QVd3bzjnRF9P3m43W4vbYInCEiYReuprTLtZ/NDLym3W9KSDg1jQRUgbnSdV4c0PUeofNbpUQDtYUKhgjxKyWVAIuEx91M1JUMBMx4GVLwhTbCEYv7pWLldjT/yosaZzJuikjS/oDVtQ13o7juHmTCT/yjsoY/9pJmeGxyHo6DD2aeS5vG6cDtfdhGtcKmOr7Xa23tbJWCYK45kwHM4y7IjCrFPPoNwz9dYhbr4QM6IwJjmZLWA2p5xzzuMJ1zYhrSbr+rJmwX3U8NRiXRHvuUgRhVBKVh61m5aIwEA+7vn/evsSTTtQWsoR4+urTxx3CwoLlGEzhVpXSQ0PZA02MQmM68c+9Q4rRGONj9ptd1U5lV92EpvWl2jLGSeTt9mFRs1/2vjot62++zpqesX8nFEwYaMt1sZldBjDxLgu1G3983+l2ociRzjD1XXMI9YEn9P+V950IbUwgWslbohCJ5MoxBfxdbcIbNfMoiSwjNnnEUefTrkzrzQ75egYrMLW3DknLPHzRvCKc+7Mq2zb7Vr1K606ZbJ1uSCIQlRWwSuWWitJnkiquEFMnFlJ7aK7lCuf6XmsurMrV9axZ1IST3LdSHf5Ko7fua/tJSD14tj9SW1HZCtLG09OnppQe3iswQTM9zmCm1I5x2iykwnstmK2kGF3nd15u9icuL7gmnsUMWBXl5yPDgQiRRTi7jzM5exZmES7FyRTYUp4F2WDQe+dsjZ6qaSF+og7FoKEQhSaLYLmzbqB46Wtdf1s4pAKtQ/P41heDd4ewt01ngm/vItu9LMOLGU9qcNBLFS3YRickFLezml20icdSgVX3akp4X+q7pmHqO7RO/wPBvnJCVHoJO6q0XzKrvuosB+GK7hx3Mk2HO0gtuHqMw7RNpe6x/5UeOMD2jJWJ1eeegB1M6mjEyyU511wna5IxM5hgUpZ+2hIr1iOS57P7x+EW9EJSIXxr37pKtyUnQHGmEVvUMK4TXTN2p5r5ZAzFezebCVOdS7f6xs5BMoaDoXiVnLPvZotQ0+xvCyQtAWmsF6GZxQsfeseu5saXli8zjqL9SmEUkjaagfK5/EulhdAIQg1tWLq9uaWj6rEuv82pHEsWNJ/HVrRsQeddQ3PYaETR0rCOS41LH2Kau69XtvVvEvmUiZb/g9nGXZEYebRx7OVzCVhw9yPKOTJYtJ2O7I76lRK3XNvikuJrCtM9R3zeHXkeUf3EimiEI07iZFV/OBLrifAjm4sxEJuSRRY3CDQr5O4hIFdg1IOk38nMorjEiRzfAKn0sqr1BVzznRUXBd7zgkZF5OUQhNe/ypiBLjVTbR99h8qv8JasbG6zvFxdj0e+9S/KH7kKMeXmBW0syjMOpGtmk+dZXbpgGPdlWXsSrvXgOO+B8Yt+VgbwwjK0Uq2suthQtmN2ClKCJDf19FhS5i3fvgOIWmQLgC1Xb9gVTCO3SPsxNaikCvY6O2fXCntaLP5nVepau5F2ubt8NK5gftWDCuFrOPOtHWnMa5R8TsR/1QzqUHZjEPw7rvRuMx2C/egkqP+aFtO/WZcxJG0rfD3AnYu/CgGd6WsCASxd9pHKecOgUgShbAk6OfuIOnHhPR42pGtCzfJZMv3EOIDuru7daUbOntp0c9NtLyxm0I1bwyFKCy7aLrfIqinYBS7Mr2nOmoXIwmhKcYt+dDrflj35P1qQr7uLs334tIyOBzGf7yTc/NS6442vPQEu0Y7H5fWXem/l8zW2aM4TIUb0bl3uqmn6M4nKYXHbSupe3IBYzff6rTf8QSOeQ0d0yA3/E7afAhXO7YLbtyPFLaCL7ptkU2PzE+Xs65qZ1mZsvNeyvLVvIbIHm3kpAZY5NSJStLBlrkIKWRHehZy0pdU9hxwKpU3XmBp8QqX+gmvfB6yuzW8TEqO2MWyS05Dz0DnggcN4goHq+MhYQPip5sJ9NdfkaDOR79BwsGCK25Xxe1iSAcmA0IyFCdxVzekcQwJLsdyHM1ILPiafafBHutD8ie2iNf1E89L48tPUT2PubqQTcH2IZzjEuLUlhzLYRg01upYNCq6ZWGw3Y2K64YdUZgxhVcd51wbNvAMohAEUu4FF3EsvgPZ9DlhUEiUyhuupeY3rS2XfG8ykkQhYgSsmnEwERMHVqKzYrO6xvc4Vo0amX3v+PErgil/IgfyxYsFg3mw0v7t/ziD1gl+LyBtXbxKheQOqfzDDUbsVgl968w+jZPunHCO7yHbfafxBTN55S6PV/DMpIUDntutkOK6SJEDZn0yjtkpNka5ULbpk6axVUJoVgZVt1/Jv8sllt2wc7PwvdA25h4XHrfkIyYK83wvG7APV+Bqjh3oRnLYgg+xY6wE5F/T0icp65QLCdaHuqyjIBXx+61/4j5bd1Kr9uwIUVwH69qVx+1pVYU6PoETYLidhEH5QMBuXaKWOI5XNIaJZqus4pWcnKOFlWmnghhMOWde7igR1KrTD7aN0QJ3nLFPvuO0eVWu5PCdbcMaFM59RMUgclWxg8JOJr2huMc76IIUCTMCkSQKC5JjacZmrA8wW5jkYQtdNjFMioMbcmgWfcFA8El1Bz33WzO19/SH3H4oRCEmIYgFZojv5L/k6D04u3GlOpW6xyQew8/gjMeNVLPgZu8452u5ZGadaNQbuMW4BetoJ+LE/cpJPcpy62UmUNjSy6nYkaVO61F6ISf/MpPGV/9Ga+ZfY3ZqwDFYcyJBnp2rWSfH4+pc/gN7Lm1JiRwnFhLOdnob62nFYTsN6J/vgeRt2TPlLr33iW953/01/Iw1wgJMI4jLPY7jLw+FBBLsZn3Iu/B6yjz0BGp+eylV3aqPr+fG+rLxdQ7bcqe1rgaCctTtj5l1ydWx9m8/5+Qg1pZKSOxXwPHlraSLwxXgvjt5TuZUEHPaM2ocxXE8U3gvqBAFTPxkn3yh5YKzmcdE3iW3sJXV0Sq7s28s46zpZ1PangcQLGJrOKkgFk897D0x7sVPvV0MtE70njDZ2ZDGsSxOapXDunywAqOGpn88p/RQFR5g4vaE94pdDFw37a0+53Dq5QXsvItvtiXeMYbVLb6bx8VnVVx/N+3oyoZ7XMJvCGOITuwWonTX4hx+6wi1gfi88AhEyKPkrfXju12dbs4PO6Iwde/9qOjWtSsRbm7UqiyIwqrb5lL2jNM5cPLgBgMtu3QWtf3X2Ys0kkQhsKl56DZqeP5RK5jU8XwO9p/BQf/dSi8HoYa1XMf3X/pdiol5xmEnU9Yxp1Msk4duBEkFKq8+i3o5VodTyT1nDo048lSnxQeUc+JGalwEq6JRvErtRkqO3p0V/yrbS3Rm/shcu5pXSO3EbfwSq/pgDdXN7qLYOrHShGWcIxdrpXxcoJLNoO5GJrSaXlzM33eLVVe8x3PPv5ZGHHaS97PbHTvLMTfkRnfFalo5XU9M65KZGH1HHCq45OqILqOssbVL1rP6rKneoOyI74hs0XZZLxEzq+bBW/jF+LLRjOPtaHa3SbRxt3HyG3NCrJp1qvXjf1MFYgxqREfCu7Eo9m0CK5i553FG0eJxvof99nUWCL4Fxz7zLlvMFvse0u7rMi8aF2azconMqeEWxF+tYjd+nUQq67KuTTkXPAKRJApT2dv4hI0zaOvswVmotUKhsauXnlreTN/WdYVMEqKNUIjC5ZO39FsIxTgy4vCTlavximm/eyzwAuh4Xmwy4tz6EvQjOes8Jt4QxChscZikCoSAWjThrU6Ui+tZ0/QTOQ4XoVuE9q1/FLsjupkAObEcU/WztwGSyFlJwdV3U/q+UwacBl4IRUKsg9gJFr2LOCRMIk/kzAQx2Fr+8xY1vfo0dXz3hbfI6EdfV5Zc4W6nmpOysWLmbSdwJ3GLbWn0AusF0cDyvp+devKMf+ULSwLJtz67fRgadJX8op5xOxJWeXFM31tr5UNMRo/ncEpxmVkc47OXVp08Se/uyIsVOWdeoeYqVn1FGKQGhNfhECW+1nOB5QND12ARNpiMteVzzmKrzncCq/d+1lnrQ4+Dazq8DuwEY0HafocwabQ/JW+zs2viqJ2f9bLzj/JrZjRnAk/caHNSsVOvO1edgyXuGP4tGOK7AKHCwvB3BYEVpdOY3evdOGaAY7KFK30xJ6bT6Zkml6lDiPtaedXpA2JqIkxX9vSZhDwFoS7YqXAAHLfasL7LOOgoypk523Z8wDummq2DO3/82qr7ro+Hc1xSXMQN53E89zbLfiBO+5iFr7paBDMqa2Kjleo72TAoIGlKEhOFOafMIiz4RFqGHVGYsMVEGrvInXuCDkSQEHhRxMazMjPIUnLi8dS9/CdHrUaaKERijVUnTaIeDoBvJRh0sRKARCBOBSQhTMV1GY3cWivCRH4NK0F2rnq+fXRD7vheF7i/4pBtHZFVMK0e98r/tCbWvnVDEfrtoD94B1Hfc377rPCOfnippTIKpWMFm/kjOKxO3LjPBtYDJaPty09UENc2Jl8MctOJFSUG/CZ2C7GTjCnHUj4/a76COEwVs08fQDj7ljH2EUg857SLXCs1uN4uYLKvVYfRntUWz/+Kw3a2Oq2OO82A1/zPl6nqFudhF4xJpVnjGPN+ZXdX3wkcntkRnOkamTR9Y92ZXY+VQTcvbtQ9Hu7uTADrpLelmWPQbKcrQmPYqi6BreuCkXJWhto+eVd7KWKY5J4z21R5r3nkdmp4jt0INK4GZpXDSnHM4jctrRWdZj42VuLN2jA7VrtoPsdVXGB2ynssdfc/U+FND3k/h2un4+fvqHTmodrqkHxh7BNva8vIyehBIJJEIf+oaBsmCaczWZgWHztkN/1+RbuyJgw1NqFxA6EQhYGTYt8EGSs5q7ixcARrEliP99SuoYqrZnhJD8OiBnrd6tMOYoKxXnULk0o7/Snz0OmUd+ENxm0M2IJkwMJL5y/fDTjnewDu0k4zFduFf/CtF/tO40aDxNMlVjIbV9XCEkgMH5fJwPaNzwjnUnT7YkreanvjkNoC97bP3qe2T9/jhA7vUT/r2YGSuvskauXzkW4nsN2ECZszMfNa4GFHn9s4Jng5u8XbSSiWNIiRjEQBbfgDdkhGxvrDqL88rp0c2+lv6DPiCRfesO696CQ0Ca4bwVa2OTMu9tNjQBDiO65/5kHq4GzTOkH27TEcggUeJCCh6556gOdGPyqruSz2QnISywxz1lroITaGHYjDnrjJRNPuOLXExfWwtkUWZTOBVWLldecoK6c8XsQA8RooSFCyimNa+kohu7wjAZzKoA0PEuhTPLcpvHEBpey0p7KgKr/sZC9BbyQ9a/v8vxzPnY//LnDj7oc7q0bWp3GM42DwnTJWFpLA1snwqEJCO6eCGLPIeK0zunE7Lpu1bZaJHfkPcs66gjAGwqLcSsBP/MaxKZ0s2FjV4Xs87OOSzUIU2saYg9BBxoKeb3+s9htfeYbW3HOd9XyDFwnx3oGFYSRl2BGFcbl5NOHVNyOJyaDVvXx/zmbX3OSovUgThehE01svklqFtOkRHniY7du5SzohCdEU3L43YndCO8ELsg4JBTiItRtJ2W1fFbTZjqRwUqebmDhFdz7FcW92ta0WigZcW5o4kLCdwCISlpE6KeUs1h2czVonydvuym4nT+mKEAZnuD11l6+kzt9+5gxr7C7DLjOwIDQjSnzjJ1lV3Mzm01Ucv8VOxnAGWjPrNpij4/5UH2wqSeTMehiYrZQlq8vtyBU3sX3wzP66/+baF5xT607UBWtRKF5OJItJP5ClZqIl5PjlgyDSabyCjN9OPCuJvlkwQdiWckZFY5JqVn/gMXwXox94IfDwgM8qS/QkxksjxWwFkcTWEMGIioEIi1ubyR/uH1nRzTJvwkoUixVQ9LuWf++4G7pMhx28WlrK5KudwBWk8MYH7Yp5zzuJC4pJwLjnPvBeE64dxKP57eBttNVh4jThjW+1ZeRk9CAQSaIQ78FEdjU+sDiVJo9OGZKbrmrvofnfNFBjF9OEYXJ5DoUoXHXmVL8xxjeOXy0n8vDThUwmK5hIw3ID8eSMAPFYBMpiV8E1d19rizEWWOFW6MnO9ZbFIiQsp+o5sZvdJB0XJe+4B7X/n7PxJWnrnan47me8bel2On/9kcp5EdogP63KQr9MGDNBu7CVw9mJs3hx0ZB2Xggtu+JU2/cEyoN0HcnhG5LYVa+r5GdFnMJisOP7L5y9I/l962QCHHI7xs39vo1nC/cxj79t+5zjnQwCGu86vKc6f+I/9g7SEQtGU06s1TFP6K5iPZNDICkdk71iun753utWb9RlbH3j2xnHjC30w5Lj9vLPEm6c9NmauZo7DS2C9yXihMdyDNCeylJFavWwTuBEoL/jWUNc+GaebwVKEZOgKTvsHnjY+xmWXzUP3MKE5KfeY2Y7dtaiVfOu4PZt9DEe/4ofXGqZnRl6KBJJGpmd4XZfcO09bHXob+GkLMlA8vhI9qkXUfaJTMKzlLK1oa+FLQjDQOtfuMKm7LI3tSx70WuogbEwffIRVH2r/eL5+jKOpe78J3ZBfcMHSZNdJtMxliH0la/eblKSnJCEuM6IEwmDFl/jAuKxS82reQy0e1+2/PefVMlZ480EJGEyE8RprN8m8/OPhfUYn2SbeO5LzzvKv22zihwei8S4hJBqdmMi7gsGHOlsoWsntiTh7xXknD2bso46za66kM4PO6IQK0oTlv074olGQkLVwcW9LTyJmsQrKQ5lMIhCKOrVt8Hf/mX7XrE7STJPpkGawH0ME2rElsHAhJXAZk780cJ++z0NdbZ1QZHNv1SfDbePXYwr2ZrKLoByYGN4YcIFWLdaEXiN7rNdogvfaxGkH+b/OgEZB7dvJyShh10Ox7BpeWyyfhKlrJ6efUTXrMIDqyq9TY3UW7+GetZU8V+FIgax7WWC0G7QM2vALtszgtMqCzuNGxDqHb/0/1R2V7M2EMcOrgyGJaNZGe8xVjoypx5PeDEgW6wTwQSoljNcW0kiZ7Udzcl9nAoUV51FRd6sG1UfndTX8p83qfL685wU5eQXxzFRepNpWaeJLoyLMeHEajH+ejmAr87y2LjGdwtL5Ey2EnUivx0wUWsRW8iBgYONM4r2lbsaMvvxeKcTWImk7TlZrQTCgtFTUMTW52yBzgQYrGo7V/xCrR/+k1rff8u2LljOjVn8FlllwcRk7LdDtred4CiXKbgZ2rgEGvelVmKn7WSrYI1/8RNXK51G/XZb3zhqVmUjlXXZqj05HjwCkSQK0SvoILCZAFF46Ni04DsaxJUd/Nu+59tGKmlmV8AwkYToRihEYaB1FMbhsbyIBksMvEsRsqCdrWx8BZNqgxT0PY596BAjr55PSVtuR42vPM3WCtfbjl0MBiWM34yJsO0UMdL50zfK9TmwbqvP2SefT3WP32d12v8465ATln7GOk6q//GAT4jZVHnN2QSSyU6wqI1kcW2cJdZKEKM3d+aV6jSeQRXP1uGCHL4LvCuwoOqE8LPqg93xSLUDa/8YnqjHJCTxlv8Skyk2MZHfwV3Ux1ajPcCYFymDEYQ0yTmDvX+a6hTZiOD/fnomf1bkg4vKdQtbtYvvUXGUddVZvYuxeLr6jClaXU1Xr905ENZjn/gnNb642J/g97kQYUoQMxgkCeY8WJTsrijleJbfK6tU/PacyCh2gQ8k7Hyvq2AdspV1SZ1gkbiI+2ImSJajSMK6Nf6neV4IS81UvtZXAhc8EKO++L6/q/uE8UEFh5EC6eoVHgewoOEbn9V7jnfgblkwZ76ad25I41jaPlOojMlZWKHaCYirJCbdYKGZst0uHN4rg3/jPEfn7wjWfU1vvkBtrLvaeZ+hHeWizyQhwieYCr8jsOgby3opCHT8RhEiAK7LWKSB9TKMV+wSCnrr5vpgBR6LOQfP27p4UcjtOOGty2QnIuMSP6/9PGY6mTcjTqL6Xvj3nsS/BTX+8jOPUBGtnGcA3037lx/bvpuxeDT6sTcovmisyV2G79DwIwr53ose4AxU2+nd08IHUWRqavv6ayo7i1csHcpgEIXoCqyWqudd5owsdNh3XTEMKIjRopv4KsvEWcc7tqQy2oNCUHzfc2p1wjgW6tapiyDascr0CkW0g2MsIvYAXtaWg69PZ+PHbqysIs2s7HyKqd12dgtBMOehkDGPvUkJ3FedlHIA5g5W9HWy0bIfTF0/jWsQt6J81nHe1UXjuNUWL5382XeaEkyYVFXddplyaY7lFykIJN1LCYNzIpPkSC4BM/I4diNJYvIwaQtz6ym7+HM6y7/A+8GzA3fOTl5xt5NA95rA8k4SaAReE8znBHaDGP3QUkuSrI4thJuWLKIeVtTjeILS29aqfUFiIgwrURB3UEqgkEAxdZPgRAWOh0UN4xlxYcUMQeMD3dIC23UaQyzvkrmOXJSM+svYVSeQTDDOGduieYuU4mJ8DtfWSYbCYGNOhquPUo9zBCJNFBo96enrp13yE2nSqBQameyhBLY0jKR09vbT66tb6d9l7WQdyS64HoRCFCL+UdlFx/s1DEsaWB6BzEQIifYvPlTvA7wbkpmYiePg/+VXnOY38VaLHpw8Lu/cOX7xoFX8IyTJCpII8uuYxYfRvLhZzl4AOtdf30utYmEjLlnLOy+rSZQulI23LsYHrnqYhCGZlZ8ljLfQ2h1YeiTy+zu+cLQq62ThNqAK+ThICIBAGvfCJwNagwX7yuP2siWxde9PENAVbKVq55Y/oHG7A2x5BU8AWCKuOn2KnuhhY5hYLh9sHzI5Pncex+nWCVye4Z2lk4xDjlceOYFlYBm2hscMK5I+eYc92D18sd9ldZwEr45JXF/xterC2IBMxvhdg2wCYQoL1ipux9ddH4lNMo85k5BQ0HfRdb0ex/hZQAxphIvCmK/mw5ecpH+GfIGOkv3Y7Hzqa6iJ6LtmKG8V49LIuQupgvVtJ2RhOPqac9aV2rip4WgDdQxLojDr9JmUO0MflD5cAEWqnoYX/s6D7W2Oqx8sohAdGiyyEMlMiu5+VgW11QERTBIBkIRQpu0CH+vaNTsHdxesOjoVZHaOZZKqv7OdV1IrlYuFylRo4/roW38qByMvuGKe7Sq7cQ2+v5VIjBK42mcUiNAWqyRjOf6KnYu3ncUeujee4zuC3NMJYteUXzlDOwHwvR6E1ZhHXvE9pPbrHr+XLR7uHXDc1QF+mSOmYsZBRw+4TJmQa9y8EPMTbq5ORWfC71sHgt0Wc3B4KwGhjIDYvoqYVdmgj7NFJ1zcrQLUg5AtOWwnR2S5rg8gDhGrwyxGjtV1g0UW5l8+jzIOOMKqG97jyGoGUtlOsBpafM+zdsW851veX6biCHkPmOwgTkzWMeF/pzqJIeZkccGky3JoCBAYLKIQtwbiKycpjrbN4Xi/aZxZMzGOMhJiKSsxluIUCRQeAEBKvl/ZzkRhG7V2h8/l2OhdKEQh6jAj2+1i8IJAROxAWN0juD2CqWNijWMYZ+AJYlgcqfhsvFAWGCzd6H8oW08uhzV4/gNyk6kUC3BIBgf3Q7iS9lSXs5UXezj8Hl/RUX+YbInE/ThqWwpFFIG0fQ9RVrGBjdT/fRHVcqI1nWDxfiwvZutcMqFXVlw90966X9dQwDlf13YnGZkDLnf8EW6bRbc+ql1kR2VIGld6xsHapCBYiIVrOixOITBoqHlgrq3300i2KEzj8FS+AiJw1Qn7+f+GWTeE3pv2p/19i/rtwyMCi+LYIttrPM8xIEiCAjd4ZK02jq2P4xgMaJSBwy57q/s2/huuZKHR/0hu49h4wNW7IkydMcYlPJeDQRbC7R68wGDIsCQK48dvRKMXPkZxqXr3hMEAMJg2eltbqeLKyzhuy8BVMav6BpMoRB8UWfiXK03jaFj10dVxtrIpYhfCFI5fYydwVVh56oGOCQ24huJl6SZoqF0fjPOYvKzkF15PxSrjUMS2CEybNf0c02x8do06cT+2q8PVeVbMC9hiL32fg20vc5IJGG6aCTy5sROVWXUux+FzYBGRN+sGdvEdaGlZz27aCA4dqvjGj/KtC26lpecfwzGSvvI97N1HPLzie5/zfrbbAbmmAvvakM2wQoVSrJNOziSIjOROY+zo6go8BwUTMWtS//jnwFPez8CmZNqOji1DvRea7Ixi8gwWNW5EkYVwv7NxhXdTp29ZN0Gg8b2u4sDeTsI1OMkgbfQDYxYWN3RWOFihz+VYJ+EWBPBHcgWdjLr3eVtrS931cm7wEBhMohB3hWcXTo9pHrbISY6jg8ak0OYjEig2jEThp9Ud9EJJCzWFMS6h7zcSKlGIMbr03CMHxAOEOxcy2yezS7CdwGoe3hCNr/ICA4+5sIpXyaVYD4NgMaH65llBWzFZtW9kkW9a9hKHtWEyMsKC+0o78CgVw1i5bkW4Pal+cBGA1Q5ifyeM28Sv4T7OOLrqhH298fL8Tvp8GMlJu9I4eZedIL5kBSc+g3t/SMLkPHT4nFNneatxmjHae4HDHZCESErmNMxS6yfvqmREOq8KzKUSN91KuUG387vczlLK+L2bddlqDIDnS+65V3sJP7NrjWPt7L5a//SDyg0bx7CggNBShqxv4xgyDnvy1pKjxj0aW0UWXnaKXwxb49yGukVojaJ5j1HVrZdazrcigU3guKTIwitPs7VuDrYvsNotunWh7YJAsPUHXjcsiULi+A15l13Fk/5pyhQ38Kai+TMU3+a3l9Ga22/hwbfFcVcHmyg0OoaJXu3C27WTTKOs0y3cYApvuN+VqxuSB1SxImsn+AEhc5ZdjBu7enTn6znrae3DEWLyWbFAUGwEPU7lZBLBxkpCDLWS4zlZDjLFRVgQQyJ/9l0qi5nTpkrPO1KbvbjojiccZ3JqfP15WnOnnuQYwdZSuWw1ZSaIqbmKM0iGKroVHrQBxbO7dMWAZswyPA8oFHDAifs2fmcTkGnYZlINq426x+/huKJLtC7XAV3QfoQ16EjOlmdlSeh7MWKPtnBG51Bl7DPvUfzIUa6r6eKJeM3COzj+6Tuur9Vd4CQLeOD1SE6AJAV2giynORx306kg8Qpcm61k5LX3Eqyfwy2Is/TboUzeaojYwlv/Sqm77BXupqW+CCAw2EQhbqGbLf7Gp3voxI3TqSiF3fLYo9RuTHN66x9UttHffm0hbiJsdQa2HSpRiPpUtk/OMDwgCROP7VhoAnGCsCRIUKHim3V0qDiqWJTDAhViUvkupiG5VPF9z6uyRn+xIAtr/2Z+nwbr9mjUpbbcN2UtzAt+iIMFLwckwoqEYKKWuu9UlfkZ4Wyc6ASR6IfTOmHNCdfLGtYjrRYQndalK5c0cQflqmimd+iui8ZzWDgHEYbQI4FSz8l1ah/SxzlPZYIQ1zuVTk6qAr2ygxO3BCNI7gFrsMDkJPgtlJ51qOtQSro+ZPACeN55V7smDhBjufKWSx0bYVj1Afc6gpPnZU49TutRZOaCjDqhqyZvvaMyDsACNzzB+nlQhiVhL3tG4fnFGBa42DmCM73nzrzKr1vr0zjmd2MmH/p7utXiT8OT9zlaYDapYsgO4Znp4Xmqjqh207mECZtREWfTRixXRYLzfGswxGpcUvMqdvFHDM0B7+0QOobEMiPZAAMxIQdLhidRyOh4RhaytcqN7D6xrV+sgsECLph2YKXX+dOPVHHNbOopW+2qiqEiCtFJ9LuZV4TrHpuv3GdddTygcNKW21LexXMpkX/UbgWxzOqsJtFsxj7iyFMoZ8YlKqmK27rdlMcqI7LPOkqm4aBiKLZQ9hHcNHXXvcNmCelEeXLQPdMiMO+Ga2vavlMojeOu6Fw5zCpQCSXunGN2Sh2DpUQmJ+NwKg0vLFZuEWYvHZVpjq2ldJPLCs7G1cqxV0KR3HNm8zNonX0K7mCtHyxTkz4E9sXvCkmACq6+2y+rpJM+YGVVxaHUEDCoZ9ySjx3XjRXKxqVPUeNLSHJT76QbA8sw0Z0+6TDOtjzLciU08CJkXkMma10MqcBrAj+DrB73wsdaJTXwmsDPiAcGS9zOH4KbGBj14fece961Wpcao2zgForxqjMOsbXwzJx2AuVdcH3g5drPcM2pufuaddabbAWMyRN+H0hMFSkpu3g6B2a2tp5HjNpg3geR6q/Ua41ApIlCRdgRJzRhMnBEfBwVpMTRXiOTadvcte5v1j1zfgaLta09/fReRTu9yXEJezmOXSQlHEQh+oeg/zULblaxvELpLyZSRfOfISRoMhPoNVgMbX7t2ZAWjjIPP5nJi2u8TYTLch8VwnIwYdOJyn0aEyfEB/aNWYZ4datOmRyyvurtfBh24P4NN8vUPx3gzSRrpwcF02xgO3inIPwJyOZO1hucJC9w1C7/SJGsr/3b/4V9kc1oH67CKWw1lj5pmtI3rXS4VayPdzGxZyVYdEcSH7d6KuqDlVotx/PrdpjcBtfA0q1gzl2se+Xh4wDp5sQdCJvTzUlBQhFPwShCsp5Qkrshe3HV7VcGpfeA7MmYdqLSIeySLBr3CXKy5sFbnWUENy4y2WL+MYrDzVh9p+vDOGZy26aH8Buvf3YhNbLVuJOY96aV/H4wbb+p1MbzFF2cdt31Ts8hORaSmNY/9yg1v8MhoWw8pKzqRZKgrGNO57iVM/ysaRFWKdyL/0YfnI5LKI/Futq/3kUt/34tJFIUxCDI+Kxjz/Rb4DP6FMntsCUKAUpcbj5lHnY4pf15MsdhKfZTFCIJWjB1d5WVUvM/l1HTi0s45kqV6yqGkig0OgsFo4V/0HhxdrDS4WbVGYNC5rSTFLFk9bI32tFt4RKAeHJt//tobQwaJghTOH5D9knnqYQSumvDeQ5xTCrZZdPVYMp9xWqoWv0ftzFPjjdXmQStTMvD0V9kT6qez8p6EIMwVvniWBHwZHPCDo41BIsFJCpJ2GhztQ3lewRptvrMQyyVu2wmfLOnn+0KAsReqp7HGfbYhROCF0jBpbc4spTq52cbVmWNLz8VFGEFC7oxbNEWl5buqs+hFFZEMFymrchCVuTH/f1DS2XVqm0oGi3/enUtockET089ByDWCT/XcE9BoO60vQ5Qz4muuNk5TDaq77gqaMXZjYuvWfu+x2BFjWcJSoYbCxgoDyC3Mw+dHpJFM+IHVcw5gxeVzDMcAuuR1y8IynoS5DQycPf39HDgfn5n/u566Hv/4d5XgcZ5ImImsGIsuOYeLYlvdp0cGxoEwkIUsvVeL5OBzNf5SXo8B23n+IO57GJczJaDEzI8bEmYQElhTmRS1tpDy8ra6MvaTuriJCahvMf8bsDiQ7iIQqN66F81bD3lNlwEFvcyph6vJlWxnBHTTjAOwV0Zi1vdpSV2xf3Ow0o+74Lr/MYXjD0Vs0/XZh/2q+T3D4jTBSujtXrTJpS42daUtMmWlgSBUQeIArxTdNmOjbJmW8Ro66kqNztlfwxEJlt3Ql9K5NjIWJAxS/IG0hqL37DkDEoctmPUjaQuyKALKzno0oi5jcyyTj1PkHUb95Wy6z4qJA7uCeFDau6/iXUntpwJQvD9xkLPxB/HoEOd+L6TmAh2qhtbkQLob+Yhx6rMy7C0DVagr2KhreXd16mDdX8rshXZfDMOPpYyDjzSdj4KPQvfexPj5nZhFmTwCCbiEfvYiihzc6/4bbZ99j41c4LFtg/f0c7tYL2bssdkpVfDYyQYXPEcYnEfSVXcxsjGvWexJWH6AfYYA4PhPo65+R57OEs5jHpaOHOuslQOfMlaVYZF4z0m0YgjsGi8PccuP5P1339ZlV5LyKFufm76+I+tHvws1i0v9DmRPvlwjrG3NuQTxurmt5eqTL/t33xuOx6BNEtiq2xjzoFkVIESDeOSb5+QgLP57ZfXvk85FIhTQfbqNMYKC/rx7Fo9FDKsiUIFmMfD6bNZkRg3gZK2nMgvmXEUV8CpuYuKKD4nhx/owTPPRH9625G0gk2lq6upt7KSzctXUOfPP3N675/ZBYDdLniCFoxEA1Ho22+sYHR89z9lPt+18te1K7c8WHjHJd7BynUiVn233tk2YYlv3U72ERwXShwyzuLFNRQCd9LGpU9S9+oV1F2+kroryxR5icxcHiYE40dxEHFOqqKCiYNkGz0+LC91t/eK1UuY7SMocH8Xk2is9MBkIzYlVWVAxKQBCVfi0pGOPkfhCYLQ6Qqh2/4Y5dVKy8K/qOeon5WmGP4tE8e18xQUU+45c7yr7kZ5J9su/i6QBZJvkFfuJ7t+NpAApvPnb5WrQ9fqEnZ74N8xu+birw9btlTAQ46sdMi46ykoZLJ3BybBTwyKuHFyT7oyeO6gwELx7+J+K1KPyR9PJiaF0yn7xHN1l9ueg2sDnhsElIfFIcVx3VnZfO/ZKnEILPmQpc7XmsO2UosCUFZBjnWt/k3h311Ryu5zddTXVLf2O2hqZIKrW+Efh2cXmSo33kJlPE7786Fhn/BD0ej44WvqKuHxm1fdEefLsHpU4xyeAyaGkUgFFi1wJwsHDoAHMZewAomEMyD1YhKS2C1ngnqmMZ4MJwEJX80uXM3/el2Nj4TJLSv7yOSnC2Q+nO5xQ+lrOIhCWA2OS2NLwcJkSmA/Yg//gQzEfrInhlKYMMzgv3BLV28f/beqg95lS8I1HTzB4X5wkxGXcBOF6DB+U23/9wF1MYEHtzwQefjD+B/HWX5BkMRwsjhFVmFBkgkMxIOO4d9eMNLNupbKrgxiifUJNTbz5C4mjr8nHptAVmB8St5+d9UOdB0zwRiP5HSw3u4uW8meNSsVSYKJXxzH4orn62DpCL1J7bPeBD0yFMH7pIv7rbBCe+zuZrzT+/Fu6epSk1zcA5Jhoe+wCEOiBIzDnb98yzoBJ4bhSfja7MldjD//cacwicP7D39YLIxjXRRj21oXcNZnHArIjMFox6o78JIBYQi3TWWR5Dv5Z13Hk8/zKf5erCzkUG8HY4Q5Qfeq5Sobt1rAZAJC6ZfAif+wkKqwUsQgL0CPyAn6mfS9F0NP6Vrxk5qLxLGnBkhGEFnh1mPxTHSwO7/Ci5+J2IQEhY8isvm7dyt4pmD4gKy/SDbUXVZCfZzh2zDEgPVsLBbq+feVtOV2yjACJGqkBIujIETxm4eBAfQPEEGIiYoY0CBxw7W4guceOo4xhuE32sP338sYxyWn8DiWws/LiLWEO3uhJfFc0klMVitshvM4ZnVPVseRPBOx8qC74q+vmfkH1lkN3TWGX36Yo2LhGe7x8IQxBOMAwjfEsrEF3MBBxMXy2IjxETq/1QIzCPR+niP1tfEff4fgCdT7gsdd413Vw3p0H89BC298wDS8VG9LM4/XPOfg90sv6/xq3DDa/r19HHMqQzkuWfURcYe7+LeuvhuesyLZqd93w2NKIodaUN8NexqGewyz6pfV8eFPFFrdmXHcw4MsJz2JYcIwJjFREYdqn5WC2KTEtash/CI0Hny1OsI/ICX4UYFUYY3SmKD2s7IJi6X+zk7+EbSvVRj4M34U/Yg5+DsJs/bXaHQi9G20EYWh35HUIAgIAuFGAEq+02DW4W5b6hMEdAjgXQrLFTdKnq4+OTf4CISDKESvQdJxQmM6dqM02iE3ieINnStCt1TZ1kPP/NpMvzR2h22S67SrkSAKnbYt5QQBQUAQEAQEAUFAEAgWgfWfKAwWmSi7TojCKPtCpDuCgCAgCAgCgsAGhEC4iEJABrdLyOhUD+2Sn0QbZcRTLrOHqWxVGKrFSg8zkWs6eqmU3Yy/qOmgr+q6IpqwRN2IxX9CFFoAI4cFAUFAEBAEBAFBIKoREKIwqr+edZ0TonAdFrInCAgCgoAgIAgIAoOLQDiJQqPnsC4EaTiSE5eMYtJwLP8Vp3nUfia7IDshDcE5drC3RzlbDpa39tLK1m4qbeH9tl6VNdlJHUZ/wr0VojDciEp9goAgIAgIAoKAIDAYCAhROBgoh6ENIQrDAKJUIQgIAoKAICAICAJBIRAJotDoiGFhCDfkZMQs5L+0+Bgq5MQmBYlxlMz7iRwTz8Nh8WAx2MVRYTp6+qi2q48q23upvrNXJSfp4HMdnNUYMpQEoXFfQhQaSMhWEBAEBAFBQBAQBIYTAkIUDpNvS4jCYfJFSTcFAUFAEBAEBIH1EIFIEoU6uGB1COFo0Wt3OFkVIklHOLTh722FthGiMDT85GpBQBAQBAQBQUAQGBoEhCgcGtxdtypEoWvI5AJBQBAQBAQBQUAQCBMCQ0UUhqn7Q1KNEIVDArs0KggIAoKAICAICAIhIiBEYYgADtblQhQOFtLSjiAgCAgCgoAgIAgEIiBEYSAi9p+FKLTHSEoIAoKAICAICAKCQPQhIERh9H0npj0SotAUFjkoCAgCgoAgIAgIAoOAgBCF7kEWotA9ZnKFICAICAKCgCAgCAw9AlFBFNY9vohqH1ow9GhEcQ9yzzqHsk6ZEcU9lK4JAoKAICAICAKCwPqKgBCF7r9ZIQrdYyZXCAKCgCAgCAgCgsDQIxAVRGHDkudpzZ3zhh6NKO5B/iVXUOaRR0dxD6VrgoAgIAgIAoKAILC+IoBkwq+VtdOylS3r6y2G/b4mZCbQSRunU34Sp2sWEQQEAUFAEBAEBAFBYJggEBVEYdtHH1LZxecPE8iGpptFf5lPqXvsOTSNS6uCgCAgCAgCgoAgsEEj0MtE4dsVHfTKiuYNGgc3N79ZThKdsFE65cS7uUrKCgKCgCAgCAgCgoAgMLQIRAVR2FNVSSVHTKX+3t6hRSNKW4/xeGjckpfJUzAySnso3RIEBAFBQBAQBASB9R2Bj6o66MnlQhQ6/Z63z0+m4yakUmpcjNNLpJwgIAgIAoKAICAICAJDjkBUEIVAoezSWdT23/eHHJBo7EDKLrvRqLvvj8auSZ8EAUFAEBAEBAFBYANB4MemXnrsp0Zq7pKFXbuvPDYmhiaNSaOpo5KId0UEAUFAEBAEBAFBQBAYNghEDVHY+eMPtHrmDOrv7Bw24A1GR2MSEmjU/PspefsdBqM5aUMQEAQEAUFAEBAEBAFTBOo5o8mjPzXTikbR1UwB8jmYnhBLJ2ycQX/IEr9jH1hkVxAQBAQBQUAQEASGAQJRQxT2d3VR/ROPUR3/9Xd3DwPoIt9FuBxnTD2M8s6fRTFJSZFvUFoQBAQBQUAQEAQEAUHAAoE+jlP4elkHLVvdQr34IGKJwCZZiTRzs3RKFrdjS4zkhCAgCAgCgoAgIAhEJwJRQxQCnt76epX9uPmdt6MTrUHuVeruf6L8K2aTJy9/kFuW5gQBQUAQEAQEAUFAEBiIQHsf0XWf11GLuB8PBMc4wr7Gl26dRRPS4owjshUEBAFBQBAQBAQBQWDYIBBVRKGBWvXcG6jpzX9Qf0+PcWjD2sKScP8DKP+qawhWhSKCgCAgCAgCgoAgIAhECwLLW/rYBbmRmjo2UD1N80UkxMXSgWNSaXKReIJoYJJTgoAgIAgIAoKAIBDFCEQlUYg4hc1vvUGNr79CHd9/R7SBEIYgBRM225wyD5xC6QdNodjk5Ch+dKRrgoAgIAgIAoKAILChIvDRmi56bWUL1YMslGwd6jFI9MTSrgXJdPiYFIqP3VCfDLlvQUAQEAQEAUFAEBjuCEQlUahA7euj7uoq6lr+C7VyNuSOb7+h7vJy6m9vo/7+9SQuDivWsRx70FNYRElbTqTU3XanpC0mkqeggChWNMzh/uOS/gsCgoAgIAgIAusrAj0co/Cbhh5asuJ3snB9vVGH95XAJOG+hSm0L1sSpnkkzbFD2KSYICAICAKCgCAgCEQhAtFLFEYhWNIlQUAQEAQEAUFAEBAEBIF1CDSyQeETK9rohzVtxCu5605sQHs5KQl06qbpNCFVFnk3oK9dblUQEAQEAUFAEFhvERCicL39auXGBAFBQBAQBAQBQUAQGBwEVrX305e1nVTa0k3NPewVwklP+vnf+iYx7A2CFCXJzAkWpCbQliMSaGJmHIkR4fr2Tcv9CAKCgCAgCAgCGy4CQhRuuN+93LkgIAgIAoKAICAICAJhRaCTCcKGnn7q6o9ZL4lCcJ/xsTGUzmyhJDUO66MjlQkCgoAgIAgIAoINXZ9bAAABlUlEQVRAlCAgRGGUfBHSDUFAEBAEBAFBQBAQBAQBQUAQEAQEAUFAEBAEBAFBYCgREKJwKNGXtgUBQUAQEAQEAUFAEBAEBAFBQBAQBAQBQUAQEAQEgShBQIjCKPkipBuCgCAgCAgCgoAgIAgIAoKAICAICAKCgCAgCAgCgsBQIiBE4VCiL20LAoKAICAICAKCgCAgCAgCgoAgIAgIAoKAICAICAJRgoAQhVHyRUg3BAFBQBAQBAQBQUAQEAQEAUFAEBAEBAFBQBAQBASBoURAiMKhRF/aFgQEAUFAEBAEBAFBQBAQBAQBQUAQEAQEAUFAEBAEogQBIQqj5IuQbggCgoAgIAgIAoKAICAICAKCgCAgCAgCgoAgIAgIAkOJgBCFQ4m+tC0ICAKCgCAgCAgCgoAgIAgIAoKAICAICAKCgCAgCEQJAkIURskXId0QBAQBQUAQEAQEAUFAEBAEBAFBQBAQBAQBQUAQEASGEgEhCocSfWlbEBAEBAFBQBAQBAQBQUAQEAQEAUFAEBAEBAFBQBCIEgT+Hx410/D0efdsAAAAAElFTkSuQmCC" vertex="1" parent="1">
          <mxGeometry x="731.51" y="1044.5" width="586.97" height="45.5" as="geometry" />
        </mxCell>
      </root>
    </mxGraphModel>
  </diagram>
</mxfile>
